<?xml version="1.0" standalone="no"?>
<!DOCTYPE svg PUBLIC "-//W3C//DTD SVG 20010904//EN"
 "http://www.w3.org/TR/2001/REC-SVG-20010904/DTD/svg10.dtd">
<svg version="1.0" xmlns="http://www.w3.org/2000/svg"
 width="460.000000pt" height="460.000000pt" viewBox="0 0 460.000000 460.000000"
 preserveAspectRatio="xMidYMid meet">
<metadata>
Created by potrace 1.14, written by Peter Selinger 2001-2017
</metadata>
<g transform="translate(0.000000,460.000000) scale(0.100000,-0.100000)"
fill="#000000" stroke="none">
<path d="M0 4585 c0 -11 11 -15 40 -15 31 0 40 -4 40 -17 0 -12 3 -14 11 -6 8
8 7 17 -3 32 -16 26 -88 31 -88 6z"/>
<path d="M400 4591 c0 -13 34 -71 41 -71 3 0 12 12 20 28 13 25 14 22 19 -68
6 -123 16 -105 12 23 l-3 97 -45 0 c-24 0 -44 -4 -44 -9z"/>
<path d="M530 4559 c0 -22 5 -39 10 -39 16 0 12 -70 -5 -87 -17 -16 -16 -35 0
-34 13 0 23 36 24 88 1 33 4 41 16 37 10 -4 15 -20 15 -45 0 -21 5 -39 10 -39
6 0 10 18 10 40 0 39 1 40 35 40 39 0 75 -28 75 -60 0 -11 4 -20 10 -20 17 0
65 25 77 40 16 20 16 43 1 37 -7 -2 -28 2 -47 10 -28 11 -36 11 -43 1 -4 -8
-8 4 -8 30 l0 43 -90 -2 -90 -1 0 -39z"/>
<path d="M916 4585 c7 -18 36 -35 58 -35 10 0 16 9 16 25 0 22 -4 25 -40 25
-31 0 -38 -3 -34 -15z"/>
<path d="M1010 4576 c0 -26 21 -36 78 -36 17 0 32 -4 32 -10 0 -5 11 -10 25
-10 23 0 25 4 25 40 l0 40 -80 0 c-78 0 -80 -1 -80 -24z"/>
<path d="M1280 4575 c0 -22 4 -25 40 -25 l40 0 0 -55 0 -55 66 2 c68 2 95 20
61 40 -19 10 -23 38 -6 38 7 0 18 -8 25 -17 13 -17 13 -17 14 0 0 13 9 17 40
17 l40 0 0 40 0 40 -160 0 -160 0 0 -25z"/>
<path d="M1680 4591 c0 -5 14 -23 31 -40 28 -29 36 -31 101 -31 l70 0 -3 -44
c-2 -24 -1 -42 4 -39 4 2 7 -8 7 -24 0 -25 4 -28 33 -28 35 0 77 23 77 42 0 7
-4 13 -10 13 -15 0 -12 77 3 83 10 4 12 -3 9 -24 -4 -28 -3 -29 37 -29 37 0
41 2 41 25 0 23 3 25 49 25 43 0 50 -3 55 -24 11 -44 56 -45 56 -1 0 13 7 30
15 39 8 8 15 26 15 40 l0 26 -170 -1 c-93 0 -170 -4 -170 -8 0 -4 -9 -7 -20
-8 -11 -1 -20 2 -20 8 0 5 -46 9 -105 9 -58 0 -105 -4 -105 -9z m160 -46 c0
-11 -11 -15 -40 -15 -29 0 -40 4 -40 15 0 11 11 15 40 15 29 0 40 -4 40 -15z"/>
<path d="M2290 4574 c0 -14 7 -32 15 -40 10 -10 15 -35 15 -71 0 -39 4 -54 13
-51 6 3 13 14 15 25 2 12 12 29 22 38 19 18 19 18 -2 36 -12 11 -18 22 -13 27
4 4 10 1 12 -5 3 -7 11 -13 19 -13 8 0 14 -7 14 -15 0 -8 5 -15 10 -15 6 0 13
7 16 15 4 8 17 15 30 15 16 0 24 6 24 17 0 14 3 14 20 -5 12 -13 20 -35 20
-57 0 -28 4 -35 20 -35 11 0 20 -7 20 -15 0 -13 24 -15 160 -15 136 0 160 2
160 15 0 12 -21 15 -122 16 -107 1 -117 3 -80 12 37 9 42 13 42 38 0 20 5 29
16 29 11 0 14 5 10 16 -3 9 -6 27 -6 40 0 31 -23 31 -40 -1 -14 -27 -30 -24
-30 6 0 17 -7 19 -61 19 -47 0 -65 -4 -75 -17 -13 -17 -15 -17 -28 0 -19 24
-45 21 -68 -8 -25 -32 -38 -32 -38 3 l-1 27 -15 -27 c-18 -35 -31 -35 -46 -3
-15 34 -48 34 -48 -1z m266 -51 c-10 -10 -19 5 -10 18 6 11 8 11 12 0 2 -7 1
-15 -2 -18z m48 21 c12 -4 16 -20 16 -55 0 -41 -3 -49 -19 -49 -15 0 -20 9
-23 45 -5 63 -2 70 26 59z m92 -19 c9 -8 11 -15 6 -15 -5 0 -15 7 -22 15 -7 8
-9 15 -6 15 4 0 14 -7 22 -15z"/>
<path d="M2893 4581 c-18 -30 -16 -40 7 -34 28 7 51 -16 79 -81 15 -33 29 -52
35 -48 6 4 34 9 61 13 l50 6 -57 2 c-32 0 -58 4 -58 9 0 4 7 18 16 30 8 12 13
30 10 40 -3 9 -1 24 4 32 8 12 11 11 16 -7 5 -17 14 -23 35 -23 24 0 29 4 29
25 0 23 4 25 40 25 31 0 47 -6 64 -25 13 -14 31 -25 40 -25 16 0 16 17 0 68
-6 19 -153 17 -160 -3 -4 -8 -12 -15 -20 -15 -8 0 -14 7 -14 15 0 21 -56 20
-64 -1 -6 -15 -9 -15 -24 -2 -27 23 -75 22 -89 -1z"/>
<path d="M3360 4574 l0 -26 90 4 c79 3 91 1 96 -14 3 -12 16 -18 35 -18 27 0
29 2 29 40 l0 40 -125 0 -125 0 0 -26z"/>
<path d="M3671 4564 c-1 -32 5 -47 27 -70 44 -46 78 -60 113 -47 16 6 29 7 29
2 0 -5 18 -9 40 -9 l40 0 0 49 c0 29 -7 62 -17 80 -18 31 -47 41 -56 19 -4
-10 -6 -10 -6 0 -1 19 -118 16 -139 -4 -15 -15 -16 -15 -23 2 -5 13 -8 6 -8
-22z m119 -36 c0 -13 -28 -9 -33 5 -4 10 -7 10 -18 0 -14 -14 -59 -18 -59 -5
0 4 19 15 43 24 38 14 43 14 55 0 6 -9 12 -19 12 -24z m50 17 c0 -16 -6 -25
-15 -25 -18 0 -18 5 -5 31 14 26 20 24 20 -6z"/>
<path d="M3920 4587 c0 -34 50 -49 76 -23 25 25 16 36 -31 36 -30 0 -45 -4
-45 -13z"/>
<path d="M4040 4560 c0 -33 -3 -40 -20 -40 -17 0 -20 -7 -20 -40 0 -22 3 -40
8 -40 4 0 12 -10 17 -22 6 -13 20 -27 33 -33 12 -5 22 -13 22 -17 0 -5 21 -8
46 -8 l47 0 -6 -35 c-3 -19 -13 -42 -21 -51 -9 -8 -16 -23 -16 -32 1 -15 3
-14 15 3 36 50 89 105 99 105 6 0 27 14 46 32 19 17 53 39 76 49 22 10 51 27
65 37 13 11 36 22 52 26 15 3 27 11 27 16 0 6 8 10 18 10 38 0 72 24 72 52 l0
27 -230 1 c-248 0 -243 2 -217 -53 10 -22 19 -27 50 -27 27 0 37 -4 37 -16 0
-11 6 -15 20 -11 10 3 24 -1 31 -9 6 -8 20 -14 30 -14 11 0 19 -4 19 -10 0 -5
-7 -10 -16 -10 -8 0 -13 -4 -10 -9 3 -4 -12 -7 -34 -6 -39 2 -40 1 -51 -39
-10 -35 -13 -38 -20 -21 -4 11 -8 30 -8 43 -1 12 -5 22 -11 22 -5 0 -9 3 -9 8
1 4 1 14 -1 22 -1 11 -4 9 -10 -5 -8 -19 -9 -19 -9 1 -1 12 -13 30 -28 40 -37
23 -52 44 -53 72 0 15 -6 22 -20 22 -17 0 -20 -7 -20 -40z m455 21 c3 -5 1
-12 -5 -16 -5 -3 -10 1 -10 9 0 18 6 21 15 7z m-95 -31 c14 -1 19 -4 12 -7 -6
-2 -10 -9 -6 -14 3 -5 -23 -9 -60 -9 -52 0 -66 3 -66 15 0 8 7 15 15 15 8 0
15 -5 15 -11 0 -6 7 -4 15 4 8 9 23 14 32 12 10 -2 29 -4 43 -5z m130 -10 c0
-5 -2 -10 -4 -10 -3 0 -8 5 -11 10 -3 6 -1 10 4 10 6 0 11 -4 11 -10z m-448
-45 c-2 -14 1 -32 8 -40 10 -12 9 -15 -4 -15 -12 0 -16 10 -16 40 0 22 4 40 9
40 4 0 6 -11 3 -25z m303 -5 c3 -5 -1 -10 -9 -10 -9 0 -16 5 -16 10 0 6 4 10
9 10 6 0 13 -4 16 -10z m-225 -94 c-5 -15 -14 -24 -20 -21 -14 9 -12 21 6 40
22 21 27 14 14 -19z m110 14 c0 -5 -7 -10 -15 -10 -8 0 -15 5 -15 10 0 6 7 10
15 10 8 0 15 -4 15 -10z"/>
<path d="M772 4583 c-10 -4 -10 -8 -1 -19 16 -20 29 -17 29 6 0 20 -5 23 -28
13z"/>
<path d="M217 4563 c-13 -12 -7 -43 8 -43 9 0 15 9 15 25 0 24 -10 32 -23 18z"/>
<path d="M2806 4554 c-20 -19 -21 -34 -2 -34 8 0 17 -11 20 -24 8 -34 42 -43
74 -19 39 29 39 43 -1 43 -26 0 -36 5 -45 25 -13 29 -24 31 -46 9z"/>
<path d="M130 4516 c0 -2 7 -9 15 -16 12 -10 15 -10 15 4 0 9 -7 16 -15 16 -8
0 -15 -2 -15 -4z"/>
<path d="M910 4470 c0 -27 5 -50 10 -50 6 0 10 23 10 50 0 28 -4 50 -10 50 -5
0 -10 -22 -10 -50z"/>
<path d="M3360 4480 c0 -27 4 -39 13 -37 8 1 13 -13 15 -40 4 -54 22 -56 22
-3 0 22 -4 40 -10 40 -5 0 -10 18 -10 40 0 29 -4 40 -15 40 -11 0 -15 -11 -15
-40z"/>
<path d="M3470 4486 c0 -19 5 -38 10 -41 6 -4 10 10 10 34 0 23 -4 41 -10 41
-5 0 -10 -15 -10 -34z"/>
<path d="M240 4485 c0 -11 -11 -15 -40 -15 -29 0 -40 -4 -40 -15 0 -12 14 -15
70 -15 74 0 88 11 54 44 -20 20 -44 21 -44 1z"/>
<path d="M960 4455 c0 -39 3 -45 20 -45 11 0 23 7 26 15 8 20 34 19 34 -1 0
-21 44 -14 48 8 5 24 -38 65 -49 47 -6 -11 -11 -10 -27 4 -34 31 -52 22 -52
-28z"/>
<path d="M1758 4468 c-5 -57 3 -108 18 -108 10 0 14 12 14 40 0 29 4 40 15 40
20 0 19 24 -1 44 -25 26 -42 19 -46 -16z"/>
<path d="M640 4456 c0 -9 7 -16 16 -16 9 0 14 5 12 12 -6 18 -28 21 -28 4z"/>
<path d="M830 4456 c0 -21 11 -46 20 -46 12 0 20 28 14 45 -8 19 -34 20 -34 1z"/>
<path d="M2459 4463 c-1 -5 -1 -11 0 -15 0 -5 -6 -8 -14 -8 -20 0 -19 -13 3
-33 27 -25 32 -21 30 23 -1 22 -5 40 -10 40 -4 0 -9 -3 -9 -7z"/>
<path d="M1446 4433 c-3 -3 -6 -21 -6 -40 0 -23 5 -33 15 -33 10 0 15 10 15
34 0 34 -11 52 -24 39z"/>
<path d="M1544 4429 c-10 -17 23 -46 37 -32 7 7 9 19 6 27 -7 18 -33 21 -43 5z"/>
<path d="M1696 4425 c-9 -9 -16 -27 -16 -41 0 -15 -6 -24 -16 -24 -24 0 -11
-24 19 -34 34 -12 47 0 52 45 1 19 5 40 6 48 6 21 -26 25 -45 6z"/>
<path d="M2080 4413 c1 -27 1 -27 15 -9 19 25 19 36 0 36 -10 0 -15 -10 -15
-27z"/>
<path d="M2130 4432 c0 -14 29 -48 30 -34 0 7 15 12 40 12 29 0 40 4 40 15 0
12 -13 15 -55 15 -30 0 -55 -4 -55 -8z"/>
<path d="M2910 4400 c0 -22 5 -40 10 -40 6 0 10 18 10 40 0 22 -4 40 -10 40
-5 0 -10 -18 -10 -40z"/>
<path d="M3290 4432 c0 -5 7 -17 15 -28 15 -19 15 -19 30 0 22 29 19 36 -15
36 -16 0 -30 -4 -30 -8z"/>
<path d="M160 4405 c0 -10 7 -15 18 -13 21 4 19 22 -2 26 -10 2 -16 -3 -16
-13z"/>
<path d="M1853 4413 c-19 -7 -16 -53 2 -53 10 0 15 10 15 30 0 17 -1 30 -2 29
-2 0 -9 -3 -15 -6z"/>
<path d="M1591 4374 c0 -11 3 -14 6 -6 3 7 2 16 -1 19 -3 4 -6 -2 -5 -13z"/>
<path d="M2377 4383 c-12 -11 -8 -23 8 -23 8 0 15 7 15 15 0 16 -12 20 -23 8z"/>
<path d="M3740 4375 c-10 -12 -10 -15 4 -15 9 0 16 7 16 15 0 8 -2 15 -4 15
-2 0 -9 -7 -16 -15z"/>
<path d="M1280 4345 c0 -11 11 -15 40 -15 29 0 40 4 40 15 0 11 -11 15 -40 15
-29 0 -40 -4 -40 -15z"/>
<path d="M1920 4340 c0 -15 7 -20 24 -20 35 0 40 15 10 29 -33 15 -34 14 -34
-9z"/>
<path d="M4580 4340 c0 -5 5 -10 10 -10 6 0 10 5 10 10 0 6 -4 10 -10 10 -5 0
-10 -4 -10 -10z"/>
<path d="M3390 4320 c0 -5 5 -10 10 -10 6 0 10 5 10 10 0 6 -4 10 -10 10 -5 0
-10 -4 -10 -10z"/>
<path d="M1600 4296 c0 -9 7 -16 16 -16 17 0 14 22 -4 28 -7 2 -12 -3 -12 -12z"/>
<path d="M285 4290 c3 -5 13 -10 21 -10 8 0 14 5 14 10 0 6 -9 10 -21 10 -11
0 -17 -4 -14 -10z"/>
<path d="M4081 4268 c14 -26 5 -46 -23 -50 -16 -2 -22 -9 -20 -22 3 -15 -1
-18 -17 -13 -12 3 -21 1 -21 -4 0 -16 -38 -10 -44 7 -5 14 -8 14 -21 0 -20
-20 -19 -25 5 -19 16 4 20 0 20 -21 0 -30 -8 -33 -25 -10 -11 16 -12 16 -18 0
-4 -9 -2 -16 3 -16 6 0 10 -10 9 -22 0 -22 -1 -22 -9 -3 -9 20 -9 20 -15 -2
-5 -15 -16 -23 -38 -25 -31 -3 -37 -10 -57 -65 -11 -28 -16 -31 -40 -27 -25 5
-27 3 -27 -21 0 -14 -11 -36 -23 -47 -22 -21 -23 -21 -36 -3 -8 10 -14 14 -14
8 0 -6 -16 -29 -36 -52 l-37 -41 -18 21 c-11 12 -19 26 -19 31 0 13 -28 9 -33
-4 -3 -7 -6 12 -8 42 -2 55 -2 55 -9 15 -4 -22 -8 -34 -9 -26 -1 11 -4 11 -16
1 -12 -10 -15 -10 -15 3 0 8 7 20 15 27 8 7 15 23 15 36 0 13 5 24 10 24 6 0
10 9 10 19 0 11 6 22 13 24 7 3 5 6 -5 6 -11 1 -20 -9 -24 -23 -3 -14 -12 -27
-20 -30 -8 -3 -14 -12 -14 -20 0 -9 -7 -12 -20 -9 -11 3 -20 13 -20 22 0 11
-7 7 -26 -14 -21 -24 -27 -27 -34 -15 -6 8 -10 10 -10 4 0 -6 -16 -22 -35 -35
-19 -13 -35 -32 -35 -41 0 -10 -4 -18 -10 -18 -5 0 -10 -7 -10 -15 0 -8 -9
-20 -21 -27 -12 -7 -30 -33 -40 -57 -21 -48 -20 -66 1 -27 11 21 15 23 26 11
19 -19 17 -28 -3 -20 -14 5 -15 3 -6 -6 6 -6 17 -8 24 -3 15 9 59 15 59 8 0
-3 -13 -10 -29 -15 -22 -8 -28 -16 -27 -35 1 -27 13 -30 42 -10 19 14 22 13
34 -20 8 -19 17 -34 21 -34 4 0 10 -9 14 -20 5 -15 13 -18 38 -15 18 3 26 3
20 -1 -17 -7 -17 -27 -1 -22 13 5 22 -1 59 -35 11 -10 24 -15 29 -12 6 4 10
-1 10 -9 0 -9 -4 -16 -10 -16 -5 0 -10 -5 -10 -11 0 -8 4 -8 13 -1 17 14 67
10 67 -5 0 -7 10 -13 23 -13 36 0 63 -35 32 -42 -10 -2 -12 -7 -5 -18 9 -13
12 -13 21 3 5 9 17 17 26 17 10 0 13 -5 8 -17 -3 -10 -7 -22 -8 -27 -4 -18
-41 -56 -54 -56 -8 0 -11 -5 -8 -11 4 -6 -1 -17 -11 -24 -11 -8 -14 -15 -7
-15 7 0 40 29 73 63 50 53 66 64 95 65 34 1 46 -10 25 -23 -16 -10 -11 -21 10
-21 11 0 20 3 20 7 0 4 9 5 20 2 23 -6 25 -14 8 -33 -11 -12 -10 -12 4 -1 10
7 26 10 38 6 20 -7 21 -8 4 -26 -9 -11 -15 -21 -13 -24 8 -7 49 6 49 16 0 19
19 8 22 -13 2 -15 11 -24 26 -26 12 -2 22 -7 22 -12 0 -5 7 -7 17 -3 13 5 15
2 11 -15 -7 -25 -8 -25 28 -11 27 10 27 9 11 -9 -21 -23 -22 -36 -2 -28 24 9
17 -13 -14 -45 -36 -36 -29 -37 16 -3 35 26 64 25 42 -3 -10 -12 -10 -16 0
-23 8 -4 11 -13 7 -19 -4 -6 4 -13 18 -17 22 -5 24 -9 15 -26 -14 -26 -7 -31
25 -17 14 7 29 10 32 6 10 -9 -6 -27 -24 -27 -9 0 -24 -5 -32 -11 -13 -9 -13
-10 0 -6 8 2 21 -2 28 -10 11 -11 11 -16 -2 -28 -8 -8 -25 -20 -38 -25 -24
-11 -7 -9 41 6 19 6 22 4 16 -7 -6 -11 -5 -12 6 -1 7 6 21 12 31 12 17 0 17
-2 -2 -22 -19 -20 -19 -23 -5 -26 15 -3 14 -5 -2 -18 -16 -14 -15 -14 15 -8
31 5 33 4 27 -15 -4 -13 -2 -21 5 -21 7 0 9 -7 6 -16 -5 -13 -1 -14 27 -9 31
7 31 6 12 -9 -20 -16 -20 -16 1 -22 39 -11 18 -42 -32 -50 -57 -8 -67 -24 -15
-24 31 0 39 -3 35 -14 -4 -11 4 -16 33 -18 40 -3 55 -29 20 -34 -10 -1 -27
-10 -36 -18 -10 -9 -28 -16 -42 -16 -17 -1 -11 -5 21 -17 25 -8 47 -19 50 -23
3 -4 19 -11 37 -14 36 -8 73 7 73 29 0 20 16 19 24 -1 4 -10 -1 -22 -11 -30
-19 -13 -19 -13 27 -27 8 -2 -16 -7 -55 -11 -105 -11 -108 -13 -20 -16 71 -2
76 -3 42 -11 -38 -9 -96 -53 -85 -64 4 -4 15 -2 26 4 24 13 62 15 62 3 0 -12
62 -32 98 -32 36 0 45 19 10 21 l-23 1 22 6 c21 7 22 12 21 142 0 74 -3 139
-6 145 -9 15 -12 94 -3 99 4 3 9 133 10 290 l2 285 -31 -10 c-16 -6 -30 -18
-31 -27 -1 -10 -2 -24 -3 -32 -2 -8 -3 -25 -4 -37 -2 -22 -55 -48 -75 -36 -5
3 -7 1 -3 -5 10 -17 -14 -26 -76 -27 -78 -2 -113 -35 -41 -38 15 -1 34 -8 41
-14 19 -18 36 -16 92 8 27 12 57 18 66 15 14 -5 12 -11 -16 -36 -28 -25 -31
-32 -20 -45 10 -13 8 -19 -14 -42 -14 -14 -25 -31 -24 -37 5 -27 -14 -57 -35
-54 -16 2 -21 -2 -19 -14 5 -29 -26 -21 -65 17 -20 19 -32 35 -27 35 5 0 2 5
-6 10 -10 7 -11 10 -2 11 22 3 27 4 47 17 17 11 10 13 -50 9 -76 -5 -95 -2
-95 17 0 6 -11 28 -25 48 -30 44 -30 48 -6 48 11 0 23 5 26 10 5 8 11 7 21 -1
17 -14 64 3 65 23 0 7 2 28 5 46 2 17 0 32 -5 32 -13 0 -41 -29 -41 -41 0 -6
-4 -7 -10 -4 -5 3 -10 -1 -10 -9 0 -9 -4 -16 -9 -16 -6 0 -6 12 1 30 11 34 59
73 80 65 18 -7 60 49 52 69 -4 11 2 19 19 25 19 8 25 16 23 35 -2 14 1 26 5
26 5 0 9 6 9 13 0 8 10 19 23 25 17 8 18 11 5 11 -38 2 17 55 87 84 16 7 17
10 5 18 -12 8 -7 16 28 47 l42 38 -1 309 c-1 171 -3 303 -5 295 -5 -15 -48
-40 -69 -40 -7 0 -31 -13 -53 -30 -23 -16 -49 -30 -57 -30 -24 0 -18 -18 8
-22 21 -3 22 -4 2 -14 -11 -6 -37 -14 -57 -18 -30 -6 -38 -4 -38 8 0 9 9 20
20 26 24 13 26 30 5 30 -8 0 -15 -6 -15 -13 0 -7 -9 -18 -20 -25 -17 -10 -19
-16 -10 -33 8 -15 8 -24 0 -34 -6 -8 -10 -22 -8 -32 1 -10 -7 -32 -18 -48 -11
-17 -24 -38 -27 -48 -4 -10 -12 -15 -18 -11 -6 3 -22 -6 -36 -22 -16 -20 -26
-25 -30 -16 -4 9 -16 6 -50 -13 -24 -15 -47 -24 -50 -21 -7 6 -63 -32 -63 -43
0 -11 104 25 108 37 2 6 11 8 20 5 10 -2 31 3 47 11 38 20 51 20 59 1 3 -8 2
-14 -2 -14 -18 3 -32 -3 -65 -30 -20 -15 -34 -31 -31 -34 3 -2 26 2 52 9 57
18 69 14 42 -11 -12 -11 -34 -32 -49 -46 -14 -14 -36 -29 -49 -33 -12 -4 -22
-11 -22 -16 0 -9 -17 -13 -104 -24 -37 -5 -38 -4 -23 11 9 9 30 16 46 15 21 0
31 4 31 14 0 20 -27 29 -45 14 -8 -6 -19 -9 -25 -5 -6 4 -17 1 -25 -5 -26 -22
-18 18 9 45 20 20 22 24 8 28 -10 2 -25 -3 -35 -11 -14 -12 -22 -13 -43 -4
-22 11 -30 9 -60 -14 -19 -15 -34 -33 -34 -40 0 -8 -7 -14 -15 -14 -9 0 -25
-16 -36 -35 -18 -30 -25 -34 -47 -28 -33 8 -43 22 -36 48 l6 20 -17 -20 c-16
-19 -16 -19 -10 10 8 35 22 55 41 55 7 0 17 7 22 15 4 9 19 17 31 18 15 1 38
23 72 70 28 37 56 70 64 74 8 3 15 10 15 17 0 6 9 17 19 23 21 13 65 100 62
121 -2 14 11 16 25 2 6 -6 15 -6 24 0 10 7 11 10 3 10 -7 0 -13 7 -13 16 0 11
6 14 20 9 14 -5 22 -1 26 12 3 10 11 32 19 48 25 56 25 73 -1 78 -20 4 -22 2
-13 -15z m399 -163 c0 -9 -111 -55 -132 -55 -42 0 -9 25 43 33 29 4 58 12 63
17 11 11 26 13 26 5z m-5 -145 l20 -9 -20 1 c-11 0 -31 4 -45 8 l-25 8 25 0
c14 0 34 -3 45 -8z m-1047 -12 c-2 -6 -10 -14 -16 -16 -7 -2 -10 2 -6 12 7 18
28 22 22 4z m11 -42 c-9 -8 -10 -7 -5 7 3 10 7 24 7 30 1 7 3 4 6 -7 3 -10 -1
-23 -8 -30z m951 4 c0 -5 -12 -10 -26 -10 -14 0 -23 4 -19 10 3 6 15 10 26 10
10 0 19 -4 19 -10z m-80 -10 c0 -5 -9 -10 -21 -10 -11 0 -17 5 -14 10 3 6 13
10 21 10 8 0 14 -4 14 -10z m128 -111 l27 -22 -30 7 c-16 4 -37 14 -45 22 -24
24 17 18 48 -7z m-1177 -20 c-5 -13 -10 -19 -10 -12 -1 15 10 45 15 40 3 -2 0
-15 -5 -28z m1105 -46 l39 -17 -30 -6 c-16 -4 -34 -3 -39 2 -6 4 -26 9 -45 9
-22 1 -28 3 -16 6 11 3 24 9 30 14 12 12 17 12 61 -8z m-96 -43 c0 -5 -6 -10
-12 -10 -7 0 -24 -3 -38 -6 -17 -5 -22 -3 -15 4 9 9 30 17 58 21 4 0 7 -3 7
-9z m44 -5 c-4 -8 -13 -15 -22 -15 -13 0 -12 3 4 15 24 18 25 18 18 0z m-179
-3 c-5 -5 -134 -52 -142 -52 -2 0 -1 5 3 12 4 6 3 9 -2 7 -68 -35 -84 -45 -84
-56 0 -7 0 -15 0 -18 0 -3 3 -4 8 -2 4 1 6 5 5 9 -2 4 4 5 12 2 8 -4 15 -2 15
2 0 5 16 9 35 10 28 0 32 -2 24 -13 -16 -19 6 -17 25 2 17 17 41 21 31 5 -8
-13 44 -2 63 13 6 5 27 7 45 3 21 -4 27 -3 18 3 -12 8 -10 11 10 14 13 3 46
10 74 15 46 9 48 9 30 -5 -19 -14 -18 -15 18 -11 53 6 48 -18 -5 -25 -61 -8
-76 -12 -84 -20 -11 -10 26 -8 70 4 65 18 65 -6 -1 -29 -160 -56 -172 -59
-182 -49 -6 6 -24 6 -52 -1 -47 -12 -61 -9 -53 13 4 9 -1 14 -13 14 -10 -1
-29 2 -43 6 -21 5 -22 5 -7 -5 21 -14 13 -30 -14 -30 -16 0 -19 4 -14 21 5 14
3 19 -3 15 -6 -3 -14 -2 -17 4 -4 6 -16 8 -28 4 -18 -5 -20 -4 -9 7 6 7 12 20
12 29 0 9 16 33 35 55 32 34 42 39 98 44 80 8 128 9 122 3z m45 -12 c-19 -13
-30 -13 -30 0 0 6 10 10 23 10 18 0 19 -2 7 -10z m-340 -16 c0 -8 -5 -12 -10
-9 -6 4 -8 11 -5 16 9 14 15 11 15 -7z m260 -44 c0 -5 -4 -10 -10 -10 -5 0
-10 5 -10 10 0 6 5 10 10 10 6 0 10 -4 10 -10z m310 6 c0 -2 -9 -6 -20 -9 -11
-3 -20 -1 -20 4 0 5 9 9 20 9 11 0 20 -2 20 -4z m-560 -13 c0 -5 -5 -15 -10
-23 -8 -12 -10 -11 -10 8 0 12 5 22 10 22 6 0 10 -3 10 -7z m-18 -88 c0 -5 -5
-11 -11 -13 -6 -2 -11 4 -11 13 0 9 5 15 11 13 6 -2 11 -8 11 -13z m75 -1 c-3
-3 -12 -4 -19 -1 -8 3 -5 6 6 6 11 1 17 -2 13 -5z m63 -28 c0 -2 -8 -10 -17
-17 -16 -13 -17 -12 -4 4 13 16 21 21 21 13z m-70 -46 c0 -5 -5 -10 -11 -10
-5 0 -7 5 -4 10 3 6 8 10 11 10 2 0 4 -4 4 -10z m610 -476 c0 -8 -5 -12 -10
-9 -6 4 -8 11 -5 16 9 14 15 11 15 -7z m-200 -114 c0 -5 -5 -10 -11 -10 -5 0
-7 5 -4 10 3 6 8 10 11 10 2 0 4 -4 4 -10z m235 -390 c3 -5 -1 -10 -10 -10 -9
0 -13 5 -10 10 3 6 8 10 10 10 2 0 7 -4 10 -10z m-62 -7 c-7 -2 -21 -2 -30 0
-10 3 -4 5 12 5 17 0 24 -2 18 -5z"/>
<path d="M4033 3545 c-17 -14 -17 -14 3 -15 11 0 28 6 38 13 16 12 16 13 -2
14 -11 1 -28 -5 -39 -12z"/>
<path d="M4190 3540 c0 -5 7 -10 16 -10 8 0 12 5 9 10 -3 6 -10 10 -16 10 -5
0 -9 -4 -9 -10z"/>
<path d="M4515 4281 c-10 -17 11 -21 31 -6 18 14 18 14 -3 15 -12 0 -24 -4
-28 -9z"/>
<path d="M160 4240 c0 -5 5 -10 11 -10 5 0 7 5 4 10 -3 6 -8 10 -11 10 -2 0
-4 -4 -4 -10z"/>
<path d="M1680 4210 c0 -5 5 -10 11 -10 5 0 7 5 4 10 -3 6 -8 10 -11 10 -2 0
-4 -4 -4 -10z"/>
<path d="M3960 4210 c0 -5 5 -10 10 -10 6 0 10 5 10 10 0 6 -4 10 -10 10 -5 0
-10 -4 -10 -10z"/>
<path d="M3848 4113 c7 -3 16 -2 19 1 4 3 -2 6 -13 5 -11 0 -14 -3 -6 -6z"/>
<path d="M2674 4062 c-4 -13 -12 -21 -19 -18 -8 3 -11 -2 -8 -13 2 -10 -2 -25
-10 -32 -19 -20 -31 -59 -18 -59 6 0 11 5 11 11 0 5 5 7 10 4 6 -4 9 -3 8 2
-1 4 8 29 21 55 12 27 20 54 18 60 -4 8 -8 4 -13 -10z"/>
<path d="M4270 4041 c0 -5 -8 -12 -17 -15 -85 -32 -88 -34 -69 -42 10 -4 21
-2 25 5 4 6 15 9 23 6 10 -4 24 3 37 16 23 25 27 39 11 39 -5 0 -10 -4 -10 -9z"/>
<path d="M3370 4024 c0 -8 5 -12 10 -9 6 4 8 11 5 16 -9 14 -15 11 -15 -7z"/>
<path d="M2870 3985 c0 -14 -4 -25 -10 -25 -5 0 -10 9 -10 21 0 11 -4 17 -10
14 -5 -3 -10 -15 -10 -26 0 -21 -6 -22 -68 -10 -38 8 -41 7 -30 -8 18 -23 40
-35 63 -36 11 0 20 -6 21 -12 3 -24 4 -25 18 -14 10 9 16 7 26 -5 8 -8 21 -13
31 -11 13 3 15 0 11 -16 -5 -21 -5 -21 24 2 17 13 30 18 32 11 3 -7 9 -7 20 2
13 11 15 10 10 -14 -6 -32 17 -28 26 5 11 41 7 57 -14 57 -11 0 -20 5 -20 10
0 6 9 10 21 10 16 0 20 5 17 27 -4 32 -28 44 -28 14 0 -12 -6 -21 -15 -21 -9
0 -15 9 -15 25 0 28 -12 32 -30 10 -12 -14 -15 -14 -30 0 -23 21 -30 19 -30
-10z m90 -45 c0 -5 -4 -10 -9 -10 -5 0 -16 -3 -25 -6 -11 -4 -16 -1 -16 10 0
10 9 16 25 16 14 0 25 -4 25 -10z"/>
<path d="M3031 3988 c-1 -19 4 -28 14 -28 8 0 15 5 15 10 0 6 -4 10 -9 10 -5
0 -12 8 -14 18 -3 10 -5 6 -6 -10z"/>
<path d="M3441 3994 c0 -11 3 -14 6 -6 3 7 2 16 -1 19 -3 4 -6 -2 -5 -13z"/>
<path d="M3141 3946 c-7 -9 -17 -13 -22 -10 -5 3 -14 -8 -20 -25 -6 -17 -16
-31 -22 -31 -6 0 -8 -3 -4 -6 10 -10 47 7 47 21 0 8 9 21 21 29 12 8 19 20 17
26 -3 9 -8 7 -17 -4z"/>
<path d="M2516 3931 c-4 -7 -5 -15 -2 -18 9 -9 19 4 14 18 -4 11 -6 11 -12 0z"/>
<path d="M3585 3930 c-3 -5 -4 -10 -1 -10 2 0 11 -3 20 -6 11 -4 16 -1 16 10
0 18 -25 22 -35 6z"/>
<path d="M2231 3874 c0 -11 3 -14 6 -6 3 7 2 16 -1 19 -3 4 -6 -2 -5 -13z"/>
<path d="M2580 3880 c-8 -5 -12 -12 -9 -15 4 -3 12 1 19 10 14 17 11 19 -10 5z"/>
<path d="M3140 3879 c0 -5 5 -7 10 -4 6 3 10 8 10 11 0 2 -4 4 -10 4 -5 0 -10
-5 -10 -11z"/>
<path d="M3197 3869 c4 -13 8 -18 11 -10 2 7 -1 18 -6 23 -8 8 -9 4 -5 -13z"/>
<path d="M2400 3865 c0 -8 -6 -12 -14 -9 -19 7 -28 -10 -20 -41 5 -20 9 -23
20 -15 10 9 12 5 9 -19 -2 -17 0 -33 5 -36 6 -4 9 22 8 64 -1 39 -4 71 -5 71
-2 0 -3 -7 -3 -15z"/>
<path d="M3035 3870 c-4 -6 -1 -17 5 -25 10 -12 10 -18 0 -30 -7 -9 -10 -18
-6 -22 3 -3 6 -1 6 6 0 6 11 16 25 21 30 11 33 30 5 37 -11 3 -17 9 -14 14 3
5 1 9 -5 9 -5 0 -13 -5 -16 -10z"/>
<path d="M3230 3860 c-28 -24 -25 -24 -45 -4 -12 12 -19 13 -29 5 -8 -7 -20
-10 -27 -9 -8 2 -13 -3 -11 -11 2 -8 -3 -18 -10 -22 -11 -7 -10 -9 1 -9 9 0
11 -8 7 -27 -6 -26 -5 -27 9 -9 14 19 15 18 24 -5 7 -17 10 -19 10 -6 1 9 5
17 11 17 5 0 7 -7 4 -15 -4 -8 -1 -15 5 -15 6 0 11 7 11 15 0 9 18 35 40 59
22 24 40 46 40 50 0 12 -17 6 -40 -14z"/>
<path d="M2194 3846 c-6 -16 11 -46 27 -46 13 0 10 23 -6 44 -13 17 -15 18
-21 2z"/>
<path d="M2301 3851 c-10 -7 -11 -18 -4 -47 l10 -39 7 43 c9 48 7 55 -13 43z"/>
<path d="M2249 3838 c-1 -7 0 -21 1 -31 1 -10 -4 -25 -12 -34 -12 -15 -11 -15
10 -2 14 9 22 24 22 41 0 27 -19 51 -21 26z"/>
<path d="M2426 3841 c-4 -5 -2 -12 3 -15 5 -4 12 -2 15 3 4 5 2 12 -3 15 -5 4
-12 2 -15 -3z"/>
<path d="M2514 3836 c-8 -22 3 -33 18 -18 9 9 9 15 0 24 -9 9 -13 7 -18 -6z"/>
<path d="M2562 3833 c-6 -10 -11 -21 -11 -25 -1 -4 -8 -23 -16 -42 -17 -40
-20 -90 -5 -81 5 3 12 22 16 43 4 20 13 54 22 75 15 40 11 62 -6 30z"/>
<path d="M2110 3808 c0 -20 -1 -20 -19 -4 -18 16 -18 15 -17 -23 0 -22 4 -35
7 -29 4 6 16 8 28 5 19 -5 21 -1 21 34 0 21 -4 39 -10 39 -5 0 -10 -10 -10
-22z"/>
<path d="M2148 3824 c-9 -13 28 -61 39 -51 4 5 1 14 -8 20 -9 7 -18 19 -21 27
-2 8 -7 10 -10 4z"/>
<path d="M2597 3810 c-3 -11 -1 -20 4 -20 5 0 9 9 9 20 0 11 -2 20 -4 20 -2 0
-6 -9 -9 -20z"/>
<path d="M4090 3805 c0 -8 4 -15 9 -15 5 0 14 7 21 15 10 13 9 15 -9 15 -12 0
-21 -6 -21 -15z"/>
<path d="M2950 3795 c0 -8 2 -15 4 -15 2 0 6 7 10 15 3 8 1 15 -4 15 -6 0 -10
-7 -10 -15z"/>
<path d="M4040 3803 c0 -5 4 -14 9 -21 7 -11 9 -11 14 1 3 8 3 18 0 21 -9 8
-23 7 -23 -1z"/>
<path d="M4145 3793 c-26 -7 -65 -33 -65 -44 0 -9 17 -5 67 17 54 24 53 41 -2
27z"/>
<path d="M2020 3769 c0 -5 5 -7 10 -4 6 3 10 8 10 11 0 2 -4 4 -10 4 -5 0 -10
-5 -10 -11z"/>
<path d="M2322 3752 c-1 -19 -6 -31 -12 -27 -6 4 -10 -5 -10 -19 0 -28 17 -35
26 -12 3 8 4 31 1 52 -3 37 -4 38 -5 6z"/>
<path d="M2151 3754 c0 -11 3 -14 6 -6 3 7 2 16 -1 19 -3 4 -6 -2 -5 -13z"/>
<path d="M2935 3761 c-3 -5 -1 -12 5 -16 5 -3 10 1 10 9 0 18 -6 21 -15 7z"/>
<path d="M2673 3733 c-24 -36 -43 -93 -32 -93 5 0 9 7 9 15 0 8 5 15 10 15 6
0 10 8 10 18 0 9 7 29 14 45 19 35 12 35 -11 0z"/>
<path d="M4000 3750 c0 -5 5 -10 10 -10 6 0 10 5 10 10 0 6 -4 10 -10 10 -5 0
-10 -4 -10 -10z"/>
<path d="M2015 3740 c-10 -16 7 -31 23 -21 10 6 10 10 -2 20 -10 9 -16 9 -21
1z"/>
<path d="M2565 3730 c3 -5 10 -10 16 -10 5 0 9 5 9 10 0 6 -7 10 -16 10 -8 0
-12 -4 -9 -10z"/>
<path d="M2712 3720 c0 -14 2 -19 5 -12 2 6 2 18 0 25 -3 6 -5 1 -5 -13z"/>
<path d="M2755 3730 c-3 -5 -1 -10 4 -10 6 0 11 5 11 10 0 6 -2 10 -4 10 -3 0
-8 -4 -11 -10z"/>
<path d="M2603 3715 c-9 -25 4 -29 17 -6 7 15 7 21 0 21 -6 0 -13 -7 -17 -15z"/>
<path d="M2091 3704 c0 -11 3 -14 6 -6 3 7 2 16 -1 19 -3 4 -6 -2 -5 -13z"/>
<path d="M2141 3704 c0 -11 3 -14 6 -6 3 7 2 16 -1 19 -3 4 -6 -2 -5 -13z"/>
<path d="M2340 3704 c0 -8 5 -12 10 -9 6 3 10 10 10 16 0 5 -4 9 -10 9 -5 0
-10 -7 -10 -16z"/>
<path d="M2805 3700 c-3 -5 1 -10 9 -10 9 0 16 5 16 10 0 6 -4 10 -9 10 -6 0
-13 -4 -16 -10z"/>
<path d="M1930 3691 c0 -4 9 -20 20 -34 11 -14 20 -36 20 -50 0 -13 9 -36 20
-50 11 -14 20 -30 20 -36 0 -6 5 -11 10 -11 6 0 10 7 10 15 0 8 4 15 9 15 17
0 21 32 10 72 -13 51 -31 37 -20 -15 5 -21 5 -39 0 -43 -9 -5 -13 3 -10 20 1
4 -5 13 -12 20 -21 17 -28 56 -11 63 21 8 17 23 -5 23 -11 0 -23 5 -26 10 -8
12 -35 13 -35 1z"/>
<path d="M2176 3686 c3 -9 11 -16 16 -16 13 0 5 23 -10 28 -7 2 -10 -2 -6 -12z"/>
<path d="M2372 3660 c0 -14 2 -19 5 -12 2 6 2 18 0 25 -3 6 -5 1 -5 -13z"/>
<path d="M2930 3670 c0 -5 4 -10 9 -10 6 0 13 5 16 10 3 6 -1 10 -9 10 -9 0
-16 -4 -16 -10z"/>
<path d="M3045 3670 c-3 -5 -1 -10 4 -10 6 0 11 5 11 10 0 6 -2 10 -4 10 -3 0
-8 -4 -11 -10z"/>
<path d="M3220 3669 c0 -5 5 -7 10 -4 6 3 10 8 10 11 0 2 -4 4 -10 4 -5 0 -10
-5 -10 -11z"/>
<path d="M2101 3659 c-1 -19 25 -56 34 -48 3 4 0 13 -8 20 -8 8 -16 21 -20 29
-5 13 -6 13 -6 -1z"/>
<path d="M2272 3648 c-14 -14 -16 -48 -2 -48 10 0 26 48 18 55 -2 3 -10 -1
-16 -7z"/>
<path d="M2756 3643 c-6 -14 -5 -15 5 -6 7 7 10 15 7 18 -3 3 -9 -2 -12 -12z"/>
<path d="M2075 3630 c-3 -5 -1 -18 4 -27 9 -16 10 -14 11 10 0 28 -5 34 -15
17z"/>
<path d="M2383 3609 c-18 -51 -15 -83 3 -40 8 18 14 43 12 54 -2 16 -6 13 -15
-14z"/>
<path d="M3226 3624 c-11 -28 -6 -39 9 -20 8 11 15 23 15 28 0 14 -18 9 -24
-8z"/>
<path d="M3306 3625 c-3 -8 -1 -15 4 -15 13 0 22 18 11 24 -5 3 -11 -1 -15 -9z"/>
<path d="M4551 3617 c-15 -19 -2 -29 15 -12 8 7 14 16 14 19 0 11 -17 6 -29
-7z"/>
<path d="M1890 3604 c0 -12 7 -27 15 -34 8 -7 15 -18 15 -26 0 -7 4 -16 10
-19 20 -12 5 50 -17 75 -22 24 -23 24 -23 4z"/>
<path d="M2467 3614 c-4 -4 -7 -14 -7 -23 0 -11 3 -12 11 -4 6 6 10 16 7 23
-2 6 -7 8 -11 4z"/>
<path d="M2910 3600 c0 -5 -8 -10 -18 -10 -11 0 -27 -9 -38 -21 -19 -21 -19
-21 11 -8 35 15 75 49 57 49 -6 0 -12 -4 -12 -10z"/>
<path d="M3277 3584 c-4 -4 -7 -14 -7 -23 0 -11 3 -12 11 -4 6 6 10 16 7 23
-2 6 -7 8 -11 4z"/>
<path d="M2131 3564 c0 -11 3 -14 6 -6 3 7 2 16 -1 19 -3 4 -6 -2 -5 -13z"/>
<path d="M2776 3555 c-14 -14 -29 -25 -33 -25 -11 -1 -66 -81 -59 -87 2 -3 34
24 71 60 36 36 62 68 56 71 -5 4 -21 -5 -35 -19z"/>
<path d="M2174 3546 c-7 -30 -2 -58 11 -63 6 -1 10 17 10 42 1 49 -11 60 -21
21z"/>
<path d="M2330 3559 c0 -5 5 -7 10 -4 6 3 10 8 10 11 0 2 -4 4 -10 4 -5 0 -10
-5 -10 -11z"/>
<path d="M2702 3548 c-7 -7 -12 -20 -12 -30 0 -10 -19 -30 -42 -45 -64 -41
-84 -63 -67 -74 8 -5 10 -9 5 -9 -6 0 -5 -5 2 -12 9 -9 16 -8 29 4 27 24 64
32 74 17 6 -11 12 -10 27 4 20 19 33 22 30 8 -2 -5 0 -9 5 -10 21 -3 28 0 22
9 -4 6 5 7 23 4 17 -4 32 -1 36 5 6 10 -17 15 -61 14 -6 0 -9 5 -7 12 7 17
-27 29 -38 13 -4 -7 -9 -17 -11 -21 -1 -4 -19 -10 -40 -12 l-37 -3 34 42 c18
22 38 51 45 63 12 24 1 39 -17 21z"/>
<path d="M2635 3530 c-3 -11 -11 -20 -16 -20 -5 0 -9 -5 -9 -11 0 -8 4 -9 13
0 8 6 16 9 18 7 2 -2 5 7 5 20 2 29 -2 31 -11 4z"/>
<path d="M2892 3535 c-4 -5 -7 -21 -8 -35 -1 -25 -1 -25 32 8 19 19 34 35 34
37 0 8 -53 -1 -58 -10z"/>
<path d="M3376 3529 c-11 -11 -17 -21 -14 -24 2 -3 13 4 23 15 24 26 16 33 -9
9z"/>
<path d="M2570 3511 c-6 -12 -7 -21 -1 -21 10 0 24 30 17 37 -2 3 -9 -5 -16
-16z"/>
<path d="M2824 3514 c3 -8 6 -23 6 -31 0 -14 3 -13 20 2 25 23 22 37 -9 42
-18 2 -22 0 -17 -13z"/>
<path d="M2785 3490 c-10 -11 -15 -23 -12 -27 8 -7 47 25 47 39 0 14 -16 9
-35 -12z"/>
<path d="M1856 3475 c-3 -8 -12 -15 -21 -15 -8 0 -15 -7 -15 -16 0 -27 59 1
60 28 0 15 -18 17 -24 3z"/>
<path d="M2909 3460 c-27 -22 -22 -25 15 -10 14 5 26 14 26 20 0 16 -15 12
-41 -10z"/>
<path d="M1787 3457 c-3 -8 -1 -20 4 -28 6 -10 9 -7 9 14 0 29 -5 35 -13 14z"/>
<path d="M2517 3443 c-4 -3 -7 -11 -7 -17 0 -6 5 -5 12 2 6 6 9 14 7 17 -3 3
-9 2 -12 -2z"/>
<path d="M3021 3421 c-11 -10 -18 -21 -14 -25 10 -10 25 -7 18 4 -3 6 4 14 16
18 13 5 18 12 12 15 -6 4 -20 -2 -32 -12z"/>
<path d="M3470 3425 c-8 -9 -8 -15 -2 -15 12 0 26 19 19 26 -2 2 -10 -2 -17
-11z"/>
<path d="M2367 3423 c-4 -3 -7 -11 -7 -17 0 -6 5 -5 12 2 6 6 9 14 7 17 -3 3
-9 2 -12 -2z"/>
<path d="M2394 3394 c-4 -19 -13 -38 -20 -41 -15 -5 -20 -43 -6 -43 10 0 34
57 38 93 5 40 -4 33 -12 -9z"/>
<path d="M2950 3410 c-14 -11 -20 -20 -15 -19 13 0 50 28 44 33 -2 3 -15 -4
-29 -14z"/>
<path d="M1847 3413 c-3 -4 3 -24 13 -43 l18 -35 11 25 c5 14 10 21 11 15 0
-5 4 -4 9 3 6 10 13 1 25 -28 18 -46 16 -60 -7 -39 -8 7 -12 22 -9 33 3 12 1
17 -5 13 -15 -9 -23 -46 -12 -53 14 -8 10 -34 -5 -34 -8 0 -18 10 -22 23 -4
12 -10 24 -13 27 -4 3 -14 23 -22 45 -8 22 -19 38 -24 35 -6 -3 -8 -9 -6 -15
2 -5 6 -22 9 -37 3 -23 1 -28 -17 -28 -14 0 -21 6 -21 20 0 11 -7 20 -15 20
-9 0 -15 -9 -15 -22 0 -19 -2 -20 -10 -8 -11 17 -13 9 -10 -32 1 -20 -3 -28
-14 -28 -26 0 -18 -15 9 -16 14 -1 25 2 25 7 0 5 5 9 10 9 6 0 10 -7 10 -15 0
-8 -6 -15 -12 -15 -10 0 -9 -3 1 -9 7 -5 10 -14 7 -20 -4 -6 -3 -11 2 -11 6 0
13 7 16 16 4 10 13 13 25 9 23 -7 38 12 22 28 -16 16 -14 27 5 27 9 0 18 -9
21 -20 3 -11 9 -20 13 -20 5 0 11 -8 13 -17 4 -17 5 -17 6 0 2 27 21 20 21 -9
0 -14 -4 -23 -9 -19 -5 3 -12 1 -15 -4 -11 -17 12 -22 27 -7 10 11 17 12 25 4
7 -7 15 -9 18 -5 4 4 -5 19 -19 33 -15 15 -27 32 -27 38 0 13 20 45 20 32 0
-5 6 -3 14 3 10 8 16 9 21 1 3 -5 11 -10 18 -10 8 0 8 3 -1 12 -7 7 -12 19
-12 28 0 9 -9 25 -20 35 -11 10 -20 24 -20 31 0 16 -7 20 -47 28 -17 4 -33 4
-36 -1z"/>
<path d="M2267 3413 c-4 -3 -7 -16 -6 -27 0 -19 1 -19 10 3 10 24 8 36 -4 24z"/>
<path d="M2850 3389 c-30 -10 -65 -19 -77 -19 -13 0 -23 -5 -23 -11 0 -6 8 -8
18 -5 9 3 39 8 67 12 43 6 85 28 74 39 -2 2 -29 -5 -59 -16z"/>
<path d="M3370 3380 c-8 -5 -11 -12 -7 -16 4 -4 13 -2 19 4 15 15 7 24 -12 12z"/>
<path d="M2910 3370 c0 -5 5 -10 10 -10 6 0 10 5 10 10 0 6 -4 10 -10 10 -5 0
-10 -4 -10 -10z"/>
<path d="M3035 3370 c-3 -5 -1 -10 4 -10 6 0 11 5 11 10 0 6 -2 10 -4 10 -3 0
-8 -4 -11 -10z"/>
<path d="M3235 3370 c-3 -5 -1 -10 4 -10 6 0 11 5 11 10 0 6 -2 10 -4 10 -3 0
-8 -4 -11 -10z"/>
<path d="M3565 3370 c-18 -8 -17 -9 7 -9 15 -1 30 4 33 9 7 12 -12 12 -40 0z"/>
<path d="M2507 3354 c-15 -8 -25 -19 -22 -24 9 -15 25 -12 25 5 0 8 7 15 15
15 8 0 15 5 15 10 0 12 1 12 -33 -6z"/>
<path d="M2611 3344 c-7 -8 -10 -18 -6 -22 4 -4 10 -1 12 6 3 6 11 12 19 12 8
0 14 5 14 10 0 15 -23 11 -39 -6z"/>
<path d="M3140 3345 c-7 -8 -21 -15 -31 -15 -12 0 -16 -5 -13 -15 9 -23 28
-18 52 15 23 30 15 43 -8 15z"/>
<path d="M3480 3349 c0 -5 5 -7 10 -4 6 3 10 8 10 11 0 2 -4 4 -10 4 -5 0 -10
-5 -10 -11z"/>
<path d="M3181 3341 c-7 -5 -11 -15 -9 -22 3 -10 8 -7 17 9 13 24 12 26 -8 13z"/>
<path d="M3260 3314 c-25 -19 -56 -44 -70 -55 -15 -14 -26 -17 -28 -10 -3 8
-8 9 -16 2 -7 -6 -30 -11 -51 -12 -22 -1 -45 -6 -52 -11 -6 -5 -34 -10 -61
-11 -39 -1 -49 -4 -44 -15 4 -12 -2 -14 -36 -9 -27 5 -43 3 -48 -5 -5 -8 -2
-9 9 -5 21 8 49 -2 41 -14 -3 -5 1 -6 8 -4 8 3 40 -4 73 -15 36 -12 46 -18 25
-14 -75 12 -116 15 -95 5 25 -12 19 -13 -80 -11 -44 0 -98 6 -120 12 -35 9
-41 8 -53 -11 -8 -12 -20 -21 -27 -21 -8 0 -34 -9 -60 -20 -52 -22 -48 -27
-29 40 3 11 10 17 16 14 6 -4 6 0 -1 14 -10 19 -8 52 4 71 3 6 -9 7 -30 4 -19
-3 -35 -3 -35 1 0 9 52 30 68 27 6 -1 12 3 12 9 0 5 7 10 15 10 17 0 20 16 6
25 -6 3 -13 -1 -18 -8 -4 -8 -23 -17 -40 -20 -47 -9 -88 -37 -71 -49 10 -8 10
-11 1 -15 -28 -11 -11 -21 25 -16 34 6 36 5 23 -10 -7 -10 -21 -17 -30 -17
-11 -1 -9 -5 8 -14 l24 -14 -24 -8 c-13 -4 -35 -7 -49 -7 -16 1 -18 0 -7 -3
26 -8 10 -25 -18 -18 -14 3 -26 0 -31 -8 -6 -9 -10 -6 -15 12 l-7 25 -7 -22
c-4 -13 -11 -23 -16 -23 -16 0 -16 16 2 45 56 93 64 130 9 46 -17 -28 -34 -69
-37 -92 -3 -22 -12 -43 -19 -46 -7 -3 -16 -25 -20 -49 -8 -53 -21 -57 -30 -9
-3 20 -8 34 -11 32 -4 -4 -10 -41 -12 -71 -1 -5 -10 -1 -21 9 -10 9 -18 22
-17 27 1 6 -4 13 -10 15 -8 3 -13 -4 -13 -19 -1 -21 -1 -22 -11 -4 -10 17 -12
16 -30 -10 -29 -44 -22 -106 7 -66 9 12 9 19 1 24 -6 4 -8 11 -3 15 5 4 11 2
14 -6 2 -7 13 -22 23 -32 21 -21 25 -39 9 -39 -5 0 -10 -5 -10 -11 0 -6 7 -8
17 -5 10 4 14 3 9 -1 -4 -4 -22 -13 -39 -20 l-32 -11 28 -1 c24 -1 27 -4 22
-21 -5 -17 0 -21 34 -26 31 -5 41 -11 43 -28 3 -19 8 -21 56 -18 28 2 52 0 52
-5 0 -8 51 -25 115 -39 18 -4 18 -4 3 6 -9 6 -15 17 -12 24 3 7 -2 16 -10 19
-9 4 -13 12 -10 20 5 14 31 16 52 3 15 -9 35 2 27 15 -6 8 17 14 39 10 5 -1
17 6 28 16 11 10 25 18 31 19 7 0 19 2 28 2 9 1 26 11 39 22 13 11 29 20 36
20 6 0 34 15 61 33 27 18 63 39 81 46 18 7 32 16 32 20 0 4 20 13 45 20 33 10
45 18 45 32 0 13 15 27 44 41 41 20 45 20 61 5 18 -18 35 -22 35 -8 0 5 11 9
25 9 44 0 94 65 60 79 -14 5 -15 56 -2 70 3 3 0 12 -8 20 -8 8 -15 22 -15 30
0 9 3 14 6 10 9 -9 95 45 112 71 20 31 5 26 -48 -14z m-103 -88 c-4 -9 1 -17
11 -19 9 -3 0 -3 -21 -2 -20 2 -34 -1 -31 -6 3 -5 1 -9 -5 -9 -5 0 -17 -3 -26
-6 -15 -6 -15 -4 -4 15 20 30 86 54 76 27z m-174 -33 c-7 -2 -19 -2 -25 0 -7
3 -2 5 12 5 14 0 19 -2 13 -5z m44 -29 c-3 -3 -12 -4 -19 -1 -8 3 -5 6 6 6 11
1 17 -2 13 -5z m-177 -58 c0 -11 -19 -15 -25 -6 -3 5 1 10 9 10 9 0 16 -2 16
-4z m-155 -16 c3 -5 -1 -10 -10 -10 -9 0 -13 5 -10 10 3 6 8 10 10 10 2 0 7
-4 10 -10z m-325 -45 c-16 -19 -30 -19 -30 -1 0 8 8 16 18 18 24 6 27 1 12
-17z m-55 -54 c3 -5 1 -12 -5 -16 -5 -3 -10 1 -10 9 0 18 6 21 15 7z m-70
-202 c16 -16 -19 -9 -40 7 -19 16 -19 16 5 9 14 -4 29 -11 35 -16z m65 -49
c-8 -5 -22 -9 -30 -9 -10 0 -8 3 5 9 27 12 43 12 25 0z"/>
<path d="M2860 3330 c-12 -8 -10 -10 8 -10 13 0 20 4 17 10 -7 12 -6 12 -25 0z"/>
<path d="M2910 3320 c0 -11 4 -20 9 -20 11 0 22 26 14 34 -12 12 -23 5 -23
-14z"/>
<path d="M2520 3315 c0 -17 -16 -20 -25 -5 -13 21 -35 10 -34 -17 0 -16 3 -22
6 -15 2 6 15 12 27 12 22 0 46 17 46 32 0 4 -4 8 -10 8 -5 0 -10 -7 -10 -15z"/>
<path d="M2685 3320 c-8 -13 5 -13 25 0 13 8 13 10 -2 10 -9 0 -20 -4 -23 -10z"/>
<path d="M3563 3323 c-7 -3 -13 -11 -13 -19 0 -8 -7 -17 -15 -20 -8 -4 -12
-10 -9 -15 8 -13 24 -11 24 2 0 7 7 17 16 24 19 13 16 34 -3 28z"/>
<path d="M2624 3308 c-3 -4 6 -8 20 -8 14 0 26 4 26 9 0 11 -39 10 -46 -1z"/>
<path d="M2717 3293 c-11 -10 -8 -33 4 -33 5 0 7 5 3 11 -3 6 0 15 7 20 8 5 9
9 3 9 -6 0 -14 -3 -17 -7z"/>
<path d="M2642 3271 c-18 -3 -32 -10 -32 -16 1 -5 -7 -12 -17 -16 -17 -7 -16
-8 2 -8 16 -1 17 -3 5 -11 -8 -5 -11 -12 -7 -17 8 -8 28 17 22 27 -2 3 5 11
16 18 15 10 19 10 19 0 0 -7 5 -5 11 5 6 9 14 15 20 12 5 -4 9 -1 9 4 0 6 -3
10 -7 10 -5 -1 -23 -4 -41 -8z"/>
<path d="M3098 3263 c7 -3 16 -2 19 1 4 3 -2 6 -13 5 -11 0 -14 -3 -6 -6z"/>
<path d="M3643 3255 c-3 -9 -13 -15 -22 -13 -19 3 -41 -9 -41 -23 0 -6 17 -9
37 -7 33 3 38 6 40 31 2 30 -4 36 -14 12z"/>
<path d="M2756 3251 c-3 -4 8 -8 23 -7 16 1 27 4 24 9 -6 10 -41 9 -47 -2z"/>
<path d="M2938 3243 c7 -3 16 -2 19 1 4 3 -2 6 -13 5 -11 0 -14 -3 -6 -6z"/>
<path d="M3296 3241 c-3 -5 -20 -8 -36 -7 -18 1 -29 -2 -27 -8 6 -19 41 -17
67 4 14 11 20 20 13 20 -6 0 -14 -4 -17 -9z"/>
<path d="M1677 3227 c-3 -9 1 -18 9 -21 16 -6 18 2 5 22 -7 11 -9 11 -14 -1z"/>
<path d="M2898 3223 c7 -3 16 -2 19 1 4 3 -2 6 -13 5 -11 0 -14 -3 -6 -6z"/>
<path d="M3413 3222 c-27 -4 -50 -30 -37 -42 5 -5 21 2 38 16 31 28 31 31 -1
26z"/>
<path d="M2565 3189 c2 -31 12 -32 57 -5 24 14 36 26 28 26 -9 0 -21 -5 -28
-12 -8 -8 -18 -9 -35 -1 -20 9 -23 8 -22 -8z"/>
<path d="M3336 3193 c-4 -5 -18 -8 -29 -8 -15 0 -23 -7 -25 -22 -2 -13 2 -23
8 -23 7 0 10 7 6 15 -3 10 1 15 12 15 19 0 64 29 46 30 -6 0 -14 -3 -18 -7z"/>
<path d="M3586 3191 c-4 -7 -5 -15 -2 -18 9 -9 19 4 14 18 -4 11 -6 11 -12 0z"/>
<path d="M3235 3169 c-10 -14 -1 -21 19 -13 9 3 13 10 10 15 -7 12 -21 11 -29
-2z"/>
<path d="M910 3125 c0 -11 -10 -14 -42 -11 -24 3 -48 0 -55 -6 -9 -7 -13 -7
-13 1 0 6 -4 11 -10 11 -5 0 -10 -9 -10 -19 0 -16 5 -19 27 -15 14 3 29 1 32
-4 3 -5 21 -16 38 -24 30 -15 34 -15 42 0 10 18 12 16 23 -27 3 -10 22 -16 57
-18 30 -1 59 -9 65 -16 18 -22 64 -47 86 -47 12 0 30 -5 41 -10 16 -9 22 -6
37 19 9 17 20 31 23 31 4 0 3 17 -2 37 -5 26 -4 40 4 45 11 7 -13 12 -50 11
-7 -1 -13 5 -13 13 0 8 -4 14 -10 14 -5 0 -10 -7 -10 -15 0 -21 -27 -30 -45
-15 -12 10 -53 16 -147 23 -10 1 -18 5 -18 10 0 4 -5 5 -10 2 -6 -3 -13 1 -16
9 -8 20 -24 21 -24 1z"/>
<path d="M3315 3129 c-4 -6 -12 -8 -19 -6 -17 7 -58 -12 -51 -23 4 -6 15 -8
26 -5 14 5 17 3 13 -9 -3 -9 -1 -16 6 -16 6 0 9 4 6 9 -3 5 5 16 19 25 25 16
33 36 16 36 -6 0 -13 -5 -16 -11z"/>
<path d="M740 3106 c0 -8 5 -18 10 -21 6 -3 10 1 10 9 0 8 -4 18 -10 21 -5 3
-10 -1 -10 -9z"/>
<path d="M4075 3079 c-4 -6 -5 -12 -2 -15 2 -3 7 2 10 11 7 17 1 20 -8 4z"/>
<path d="M4110 3040 c0 -5 5 -10 10 -10 6 0 10 5 10 10 0 6 -4 10 -10 10 -5 0
-10 -4 -10 -10z"/>
<path d="M3180 3024 c0 -8 5 -12 10 -9 6 3 10 -1 10 -9 0 -9 8 -16 17 -16 14
0 12 4 -7 25 -28 29 -30 30 -30 9z"/>
<path d="M1335 3005 c23 -8 83 -10 79 -3 -3 4 -24 8 -47 7 -23 0 -37 -2 -32
-4z"/>
<path d="M1365 2920 c-4 -6 6 -10 22 -10 22 0 25 2 13 10 -19 12 -27 12 -35 0z"/>
<path d="M567 2903 c-15 -14 -6 -34 23 -51 49 -30 131 -102 221 -196 l86 -89
24 25 c38 39 53 69 39 78 -11 7 80 75 124 93 10 4 16 10 13 13 -3 3 -16 0 -28
-7 -31 -16 -90 -29 -83 -18 3 5 10 9 16 9 5 0 21 9 35 20 29 22 55 25 84 9 20
-10 20 -11 2 -24 -17 -13 -16 -14 5 -8 13 3 26 13 30 22 3 9 14 22 24 29 15
11 16 16 5 33 -10 16 -9 21 3 29 13 8 13 10 -2 10 -9 0 -19 -4 -22 -9 -3 -4
-26 -11 -51 -14 -44 -6 -85 -25 -85 -39 0 -4 7 -5 15 -2 8 4 15 2 15 -3 0 -6
-19 -18 -42 -27 -24 -10 -61 -26 -82 -37 -47 -23 -59 -17 -23 12 15 11 27 29
27 40 0 20 -15 26 -25 9 -8 -14 -18 -13 -41 4 -19 15 -19 15 1 30 16 13 17 15
4 16 -25 0 -79 -21 -79 -31 0 -5 -10 -9 -21 -9 -17 0 -20 5 -16 20 4 17 2 20
-14 15 -15 -5 -19 -1 -19 20 0 33 -14 38 -83 27 -31 -5 -57 -5 -57 0 0 10 -14
11 -23 1z"/>
<path d="M815 2889 c-47 -22 -37 -24 19 -5 21 7 35 16 30 18 -5 3 -27 -3 -49
-13z"/>
<path d="M1320 2874 l-45 -26 43 5 c35 4 41 3 32 -8 -9 -11 -7 -12 10 -8 11 3
23 9 25 14 3 4 12 6 20 3 8 -4 12 -10 9 -15 -3 -5 1 -9 10 -9 8 0 16 -6 19
-12 2 -7 8 -9 13 -5 4 4 1 20 -8 35 -8 15 -13 33 -11 40 8 22 -69 13 -117 -14z"/>
<path d="M4165 2889 c-4 -6 -5 -13 -2 -16 7 -7 27 6 27 18 0 12 -17 12 -25 -2z"/>
<path d="M2146 2845 c-3 -8 -1 -15 4 -15 6 0 10 7 10 15 0 8 -2 15 -4 15 -2 0
-6 -7 -10 -15z"/>
<path d="M956 2835 c-3 -9 0 -15 8 -15 7 0 19 7 26 15 10 12 9 15 -8 15 -11 0
-22 -7 -26 -15z"/>
<path d="M2070 2840 c0 -5 10 -10 23 -10 18 0 19 2 7 10 -19 13 -30 13 -30 0z"/>
<path d="M1378 2813 c6 -2 18 -2 25 0 6 3 1 5 -13 5 -14 0 -19 -2 -12 -5z"/>
<path d="M4194 2800 c-20 -8 -42 -30 -30 -30 3 0 20 9 38 20 34 20 30 25 -8
10z"/>
<path d="M2091 2791 c-10 -7 -5 -11 17 -16 34 -7 56 0 47 16 -8 11 -46 12 -64
0z"/>
<path d="M1330 2779 c0 -5 5 -7 10 -4 6 3 10 8 10 11 0 2 -4 4 -10 4 -5 0 -10
-5 -10 -11z"/>
<path d="M3870 2760 c-8 -5 -10 -10 -5 -10 6 0 17 5 25 10 8 5 11 10 5 10 -5
0 -17 -5 -25 -10z"/>
<path d="M1120 2709 c0 -7 -9 -9 -24 -5 -25 6 -83 -10 -73 -20 3 -3 14 -1 26
5 12 7 22 7 25 2 7 -10 -20 -41 -34 -41 -5 0 -7 -7 -3 -15 3 -9 2 -15 -3 -14
-45 11 -194 -108 -232 -185 -24 -48 -28 -116 -11 -181 14 -52 23 -115 16 -115
-8 0 -80 41 -98 57 -8 7 -47 29 -85 48 -38 20 -103 55 -144 78 -41 24 -91 51
-110 62 -19 11 -46 30 -60 42 -14 12 -54 37 -90 56 -95 50 -143 77 -160 92 -8
7 -25 16 -38 19 -22 7 -22 7 -20 -91 3 -93 4 -98 28 -110 15 -8 19 -13 10 -13
-9 0 -21 5 -27 11 -8 8 -11 -27 -12 -132 l0 -144 52 -23 c29 -12 59 -22 68
-22 9 0 19 -7 23 -15 7 -20 4 -19 -52 9 -98 49 -92 53 -92 -78 0 -99 2 -117
18 -126 16 -11 16 -11 -1 -6 -20 6 -24 -19 -5 -27 10 -4 10 -6 1 -6 -9 -1 -13
-24 -13 -79 0 -78 0 -78 33 -96 28 -14 17 -14 -20 1 -9 3 -12 -36 -12 -155 -1
-155 -1 -159 21 -170 l23 -12 -22 6 -22 5 -1 -550 c0 -437 2 -551 12 -551 10
0 10 -2 1 -8 -7 -5 -11 -42 -11 -110 l0 -102 622 0 c565 1 693 5 625 23 -13 4
-21 9 -17 12 3 3 17 1 32 -4 17 -7 26 -7 26 -1 0 6 -9 10 -19 10 -10 0 -29 9
-42 19 l-24 20 41 -14 c26 -9 52 -11 70 -6 l29 8 -33 7 c-31 7 -32 9 -15 21
17 13 16 14 -8 20 -24 6 -37 35 -16 35 5 0 7 7 3 15 -3 8 -1 15 3 15 5 0 11
-5 13 -10 2 -7 15 -6 37 3 22 9 29 16 20 20 -10 4 -9 6 4 6 13 1 17 10 17 40
0 36 3 40 27 43 19 2 27 9 28 26 1 13 -2 25 -7 28 -14 9 -9 24 6 18 8 -3 17
-1 21 5 3 6 0 11 -7 11 -7 0 -19 4 -27 9 -12 8 -12 12 -3 24 10 12 8 16 -15
22 l-28 7 28 10 c36 13 34 24 -7 32 -37 7 -45 35 -13 48 26 11 20 28 -10 28
l-28 1 24 13 23 13 -22 6 c-20 5 -22 11 -18 51 2 33 -1 46 -10 46 -9 0 -11 7
-7 20 5 17 2 20 -20 20 -20 0 -26 4 -21 15 3 8 9 23 13 32 5 12 2 15 -9 11 -9
-4 -21 -1 -27 5 -16 16 -14 67 4 73 21 9 19 24 -4 24 -10 0 -21 7 -25 15 -3 9
-12 12 -22 8 -12 -4 -15 -3 -10 5 4 7 14 12 23 12 8 0 24 11 35 25 22 28 40
32 58 11 6 -8 34 -22 61 -31 31 -11 68 -34 96 -61 24 -24 49 -44 53 -44 5 0
10 -10 12 -22 2 -13 9 -22 17 -20 8 2 11 -3 8 -12 -7 -18 24 -31 34 -14 4 7
11 9 15 5 4 -3 1 -13 -5 -21 -15 -18 -7 -34 21 -45 13 -5 22 -18 24 -34 1 -15
12 -40 23 -56 12 -16 21 -36 21 -44 0 -19 37 -47 62 -47 19 0 77 -57 78 -75 0
-12 52 -45 70 -45 7 0 26 -10 42 -22 33 -23 73 -25 136 -9 20 6 65 11 98 12
57 2 61 4 56 23 -4 17 -2 19 9 9 18 -17 48 -18 31 -1 -19 19 -14 31 12 24 36
-9 69 22 61 57 l-7 27 -24 -25 c-20 -22 -32 -26 -67 -23 l-42 3 3 40 c4 46 21
84 22 50 1 -11 9 2 18 30 16 44 21 50 50 51 46 2 64 12 60 31 -2 10 3 23 11
29 8 6 11 16 6 23 -5 9 -15 5 -36 -15 l-28 -27 2 42 c1 28 5 40 13 37 15 -6
61 -13 132 -21 43 -5 52 -3 52 10 0 8 5 15 10 15 22 0 8 22 -20 33 -31 12 -41
41 -17 50 10 4 10 6 0 6 -7 1 -13 8 -13 16 0 11 8 13 30 9 22 -5 31 -2 36 11
4 9 10 12 13 7 3 -6 28 -12 54 -15 36 -4 50 -2 54 9 4 11 8 12 20 3 22 -19 42
5 25 31 -6 11 -12 27 -12 36 0 13 -7 15 -37 10 -51 -8 -70 4 -52 33 8 11 24
21 36 21 14 0 23 6 23 15 0 23 30 18 40 -7 l9 -23 0 23 c1 24 16 27 56 12 17
-7 24 -7 20 0 -13 21 7 31 26 14 17 -15 19 -15 25 -1 3 9 3 21 -1 27 -9 15 26
9 43 -7 7 -7 18 -13 23 -13 12 0 11 17 -2 25 -5 4 -14 18 -19 31 -10 25 -39
33 -41 12 -1 -18 -17 32 -18 58 -1 13 6 24 18 27 17 4 19 11 14 47 -6 42 -6
43 21 38 18 -4 29 -1 33 9 4 9 13 11 27 7 20 -6 20 -6 4 13 -10 11 -18 24 -18
30 0 12 -70 63 -86 63 -6 0 -16 11 -22 25 -8 17 -20 25 -37 25 -14 0 -25 -4
-25 -10 0 -5 5 -10 10 -10 6 0 10 -7 10 -15 0 -19 -23 -19 -61 1 -36 18 -45
14 -29 -16 16 -31 2 -40 -20 -12 -33 40 -53 26 -24 -17 17 -23 16 -23 -15 -16
-24 5 -31 3 -31 -9 0 -10 -10 -14 -30 -14 -31 1 -55 18 -26 18 30 0 16 17 -33
39 -51 23 -71 48 -49 63 9 5 17 -1 25 -20 7 -15 12 -21 13 -14 0 6 5 12 11 12
14 0 38 30 39 46 0 20 -32 25 -50 9 -9 -8 -20 -12 -23 -8 -4 3 -7 1 -7 -6 0
-13 -19 -5 -55 23 -19 15 -19 16 15 15 19 -1 49 4 65 11 l30 13 -35 7 c-19 4
-29 8 -22 9 6 0 12 6 12 12 0 5 -4 7 -10 4 -11 -7 -14 8 -3 18 3 4 12 -2 20
-13 8 -11 25 -20 38 -20 37 0 39 18 3 22 -37 3 -52 35 -24 50 9 5 16 16 16 24
0 8 6 25 14 37 17 26 22 93 12 163 -7 47 -10 52 -47 68 -21 10 -39 24 -39 32
0 8 -10 14 -24 14 -36 0 -42 -18 -9 -26 32 -8 53 -22 53 -36 0 -6 -11 -7 -27
-3 -23 5 -25 4 -14 -9 16 -19 5 -42 -13 -27 -18 15 -56 2 -56 -20 0 -25 -26
-35 -45 -19 -13 11 -14 10 -9 -4 9 -23 -22 -31 -51 -12 -34 22 -55 20 -27 -3
26 -22 29 -41 6 -41 -8 0 -13 3 -11 8 3 4 -15 7 -40 7 -41 0 -43 -1 -24 -14
21 -14 29 -51 11 -51 -5 0 -10 4 -10 9 0 9 -56 41 -69 41 -3 -1 8 -12 24 -25
17 -14 25 -25 18 -25 -6 0 -14 4 -17 9 -3 5 -15 11 -26 14 -21 5 -21 5 -5 -20
20 -30 10 -25 -55 25 -74 58 -71 57 -64 37 6 -15 3 -16 -27 -11 -30 6 -32 5
-16 -7 9 -8 17 -17 17 -21 0 -11 -35 -6 -54 9 -20 15 -41 11 -30 -7 5 -7 2 -8
-6 -3 -8 5 -31 8 -51 6 -28 -1 -41 4 -56 21 -10 13 -35 32 -56 43 -21 11 -45
30 -53 43 -13 20 -13 22 4 22 10 0 23 -5 30 -12 19 -19 14 1 -6 22 -11 12 -29
19 -48 17 -26 -2 -30 -6 -26 -24 2 -13 8 -23 12 -23 14 0 70 -61 70 -77 0 -14
-2 -15 -17 -1 -10 8 -26 18 -36 21 -10 4 -16 11 -12 16 3 5 0 13 -7 18 -17 10
-98 11 -98 1 0 -4 -4 -8 -10 -8 -5 0 -10 9 -10 21 0 18 4 20 31 14 l31 -7 -21
21 c-12 12 -21 26 -21 31 0 6 -8 10 -18 10 -10 0 -29 11 -42 25 -24 25 -43 25
-33 0 5 -15 -8 -21 -20 -9 -14 15 15 44 43 44 41 0 37 12 -11 32 -40 17 -41
17 -36 -3 5 -17 2 -19 -16 -13 -12 4 -29 8 -37 9 -41 3 -56 41 -18 47 33 5 33
25 -1 33 -26 5 -31 11 -31 36 0 33 6 36 32 12 10 -9 18 -11 18 -6 0 6 -7 14
-16 17 -13 5 -14 9 -4 21 10 12 6 18 -29 32 -33 15 -38 21 -30 33 8 11 12 12
16 3 5 -14 24 -18 21 -5 0 4 2 15 7 25 4 10 5 20 2 23 -8 8 65 84 80 84 10 0
12 6 8 20 -3 11 -3 25 2 32 10 17 11 58 1 58 -4 0 -8 6 -8 14 0 8 -9 17 -19
21 -11 3 -25 13 -32 21 -10 13 -10 17 2 25 12 8 12 10 -1 8 -13 -2 -28 3 -90
28 -8 3 -44 5 -80 4 -50 -1 -62 1 -52 11 21 21 13 31 -18 25 -17 -4 -30 -2
-30 3 0 6 8 10 18 10 9 0 30 10 45 23 27 22 27 22 7 35 -14 8 -20 9 -20 1z
m-100 -219 c0 -13 -11 -13 -30 0 -12 8 -11 10 8 10 12 0 22 -4 22 -10z m55 0
c4 -6 11 -8 16 -5 5 4 9 1 9 -4 0 -6 -7 -11 -15 -11 -8 0 -15 4 -15 10 0 5 -7
7 -15 4 -8 -4 -15 -1 -15 5 0 14 27 15 35 1z m-150 -20 c3 -5 1 -10 -4 -10 -6
0 -11 5 -11 10 0 6 2 10 4 10 3 0 8 -4 11 -10z m-823 -20 c18 -11 29 -20 25
-20 -11 0 -67 29 -67 35 0 9 9 5 42 -15z m-12 -50 c0 -5 -4 -10 -10 -10 -5 0
-10 5 -10 10 0 6 5 10 10 10 6 0 10 -4 10 -10z m175 -48 c-5 -5 -74 28 -80 39
-3 4 14 -2 39 -14 25 -12 43 -23 41 -25z m-145 28 c0 -5 -2 -10 -4 -10 -3 0
-8 5 -11 10 -3 6 -1 10 4 10 6 0 11 -4 11 -10z m34 -35 c-7 -17 -30 -20 -39
-6 -3 5 5 12 17 14 13 2 24 5 25 6 1 0 0 -6 -3 -14z m202 -36 c8 -14 -10 -11
-32 6 -18 13 -18 14 4 8 12 -3 25 -9 28 -14z m561 5 c-3 -3 -12 -4 -19 -1 -8
3 -5 6 6 6 11 1 17 -2 13 -5z m-785 -32 c-7 -2 -12 -12 -12 -23 0 -20 -15 -26
-24 -10 -4 5 0 12 6 15 7 4 4 5 -8 2 -11 -2 -21 2 -21 8 0 7 15 12 35 12 19 0
30 -2 24 -4z m818 -2 c0 -13 -11 -13 -30 0 -12 8 -11 10 8 10 12 0 22 -4 22
-10z m-484 -38 c-5 -4 -66 26 -66 33 0 3 16 -3 35 -12 19 -9 33 -18 31 -21z
m-171 8 c3 -5 2 -10 -4 -10 -5 0 -13 5 -16 10 -3 6 -2 10 4 10 5 0 13 -4 16
-10z m700 -11 c-3 -4 -12 -6 -20 -3 -8 4 -13 10 -10 15 3 4 12 6 20 3 8 -4 13
-10 10 -15z m-658 -15 c-9 -9 -28 6 -21 18 4 6 10 6 17 -1 6 -6 8 -13 4 -17z
m713 16 c0 -5 -7 -10 -15 -10 -8 0 -15 5 -15 10 0 6 7 10 15 10 8 0 15 -4 15
-10z m70 0 c0 -15 -26 -23 -41 -14 -9 5 -7 10 7 15 27 11 34 10 34 -1z m-570
-35 c16 -19 10 -19 -26 0 -25 13 -26 15 -8 15 12 0 27 -7 34 -15z m-430 -10
c27 -15 20 -19 -17 -9 -13 4 -23 10 -23 15 0 12 11 11 40 -6z m117 -12 c-3 -3
-11 -2 -17 2 -9 6 -9 10 1 16 14 8 27 -7 16 -18z m-190 11 c-3 -3 -12 -4 -19
-1 -8 3 -5 6 6 6 11 1 17 -2 13 -5z m1223 -27 c0 -23 -33 -19 -38 5 -2 12 3
16 17 15 13 -1 21 -8 21 -20z m-1180 3 c8 -5 11 -10 5 -10 -5 0 -17 5 -25 10
-8 5 -10 10 -5 10 6 0 17 -5 25 -10z m365 0 c3 -5 1 -10 -4 -10 -6 0 -11 5
-11 10 0 6 2 10 4 10 3 0 8 -4 11 -10z m48 3 c-23 -9 -14 -25 10 -19 18 4 23
1 23 -14 0 -24 -19 -26 -36 -5 -7 8 -17 12 -22 9 -6 -4 -5 3 1 15 7 11 17 21
24 20 9 0 9 -2 0 -6z m94 1 c-3 -3 -12 -4 -19 -1 -8 3 -5 6 6 6 11 1 17 -2 13
-5z m608 -4 c3 -5 1 -10 -4 -10 -6 0 -11 5 -11 10 0 6 2 10 4 10 3 0 8 -4 11
-10z m-910 -10 c3 -5 2 -10 -4 -10 -5 0 -13 5 -16 10 -3 6 -2 10 4 10 5 0 13
-4 16 -10z m-129 -20 c0 -13 -4 -16 -10 -10 -6 6 -19 11 -30 11 -15 1 -12 4 9
9 17 4 30 8 30 9 1 0 1 -8 1 -19z m164 0 c0 -5 -4 -10 -10 -10 -5 0 -10 5 -10
10 0 6 5 10 10 10 6 0 10 -4 10 -10z m449 -31 l19 25 -5 -47 c-5 -40 -2 -52
21 -81 14 -19 35 -38 46 -41 11 -3 20 -13 20 -21 0 -8 6 -14 13 -15 9 0 9 -2
0 -6 -10 -3 -10 -9 0 -24 8 -14 9 -22 1 -27 -6 -4 -18 -22 -26 -39 -16 -32
-16 -32 3 -23 10 6 19 7 19 3 0 -5 -13 -13 -29 -19 -24 -10 -29 -19 -35 -59
-4 -26 -4 -51 1 -56 5 -5 31 2 58 15 60 28 148 48 202 45 21 -2 45 1 51 5 7 4
18 3 25 -2 7 -6 23 -11 37 -11 56 -2 75 -5 82 -15 5 -7 8 -6 8 2 0 10 8 9 33
-5 17 -10 34 -19 36 -20 2 -1 -4 -9 -12 -18 -19 -18 -39 -19 -55 -3 -9 9 -12
9 -12 -3 0 -8 -10 -16 -22 -17 -106 -7 -175 -16 -185 -24 -7 -5 -14 -5 -17 1
-3 5 -14 7 -25 4 -10 -2 -35 0 -55 6 -37 10 -38 9 -95 -49 -44 -44 -61 -56
-70 -47 -6 6 -11 17 -11 25 0 17 -24 42 -41 42 -8 0 -8 4 -2 13 7 8 3 26 -12
56 -22 43 -23 44 -36 23 -8 -12 -17 -22 -21 -22 -15 0 -8 20 16 42 36 34 42
64 15 71 -12 3 -31 2 -41 -4 -12 -6 -18 -6 -18 0 0 13 18 24 44 25 18 1 22 9
27 61 4 33 11 72 17 87 7 17 8 29 2 33 -6 4 -10 16 -11 28 -1 21 -1 21 -7 2
-6 -18 -10 -19 -30 -9 -15 7 -20 14 -13 18 6 4 16 4 21 1 6 -3 10 -1 10 4 0 6
9 11 20 11 33 0 22 27 -17 44 -21 8 -49 25 -63 36 -16 13 -2 9 38 -12 l62 -33
19 24z m-404 11 c-3 -5 -10 -10 -16 -10 -5 0 -9 5 -9 10 0 6 7 10 16 10 8 0
12 -4 9 -10z m-141 -12 c-2 -4 1 -10 7 -14 6 -3 14 -2 18 4 4 7 15 1 30 -14
31 -32 10 -30 -58 5 -50 26 -52 28 -24 27 17 0 29 -4 27 -8z m336 8 c0 -3 -4
-8 -10 -11 -5 -3 -10 -1 -10 4 0 6 5 11 10 11 6 0 10 -2 10 -4z m-120 -31 c43
-31 38 -31 -24 0 -30 15 -41 25 -30 25 11 0 35 -11 54 -25z m245 -6 l30 -12
-32 -8 c-31 -9 -50 -4 -103 26 -14 8 -19 15 -12 15 7 0 25 -8 39 -17 26 -17
26 -17 21 4 -5 18 -3 20 11 12 9 -5 30 -14 46 -20z m-478 -25 c-7 -7 -37 7
-37 17 0 6 9 5 21 -1 11 -7 19 -14 16 -16z m329 15 c4 -8 0 -9 -15 -4 -15 5
-21 2 -21 -9 0 -9 5 -16 12 -16 6 0 8 -3 5 -6 -4 -4 -13 -1 -22 6 -12 10 -13
16 -4 26 14 17 35 18 45 3z m42 -21 c20 -20 14 -28 -19 -28 -18 0 -28 4 -24
10 4 6 11 7 17 4 7 -5 9 -1 5 9 -7 20 4 22 21 5z m-352 -55 c-5 -5 -76 35 -76
43 0 2 18 -5 41 -16 23 -12 38 -24 35 -27z m121 41 c-3 -3 -12 -4 -19 -1 -8 3
-5 6 6 6 11 1 17 -2 13 -5z m-311 -28 c21 -21 17 -26 -10 -13 -13 7 -22 15
-20 19 7 11 14 10 30 -6z m387 2 c-2 -5 -10 -8 -18 -8 -8 0 -16 3 -18 8 -3 4
5 7 18 7 13 0 21 -3 18 -7z m232 3 c6 -11 -57 -26 -77 -18 -7 2 3 9 22 15 46
13 48 14 55 3z m-500 -21 c7 -12 -2 -12 -30 0 -19 8 -19 9 2 9 12 1 25 -3 28
-9z m112 -6 c-3 -3 -12 -4 -19 -1 -8 3 -5 6 6 6 11 1 17 -2 13 -5z m103 -15
c0 -4 -7 -6 -15 -3 -8 4 -15 10 -15 15 0 4 7 6 15 3 8 -4 15 -10 15 -15z m303
4 c-7 -2 -19 -2 -25 0 -7 3 -2 5 12 5 14 0 19 -2 13 -5z m-344 -32 c-6 -2 -18
4 -27 13 -15 15 -15 15 10 4 15 -7 23 -15 17 -17z m185 18 c-5 -8 1 -10 19 -7
14 3 32 1 39 -3 14 -9 -20 -10 -61 -2 -20 3 -22 6 -10 14 19 12 22 11 13 -2z
m190 -4 c-7 -16 -24 -21 -24 -6 0 8 7 13 27 20 1 1 0 -6 -3 -14z m-526 -13 c2
-6 -1 -12 -7 -12 -6 0 -11 5 -11 11 0 5 -4 7 -10 4 -5 -3 -17 -2 -27 3 -13 8
-9 9 17 8 18 -1 35 -7 38 -14z m60 -13 c-10 -5 -15 -16 -11 -25 5 -14 3 -14
-15 -3 l-22 14 23 12 c26 15 50 17 25 2z m362 -4 c-7 -8 -22 -15 -34 -15 -17
1 -16 3 9 15 39 18 40 18 25 0z m770 5 c0 -5 -5 -10 -11 -10 -5 0 -7 5 -4 10
3 6 8 10 11 10 2 0 4 -4 4 -10z m-944 -19 c-4 -6 -14 -7 -23 -4 -15 6 -14 7 3
13 22 9 29 6 20 -9z m60 -3 c4 -6 3 -8 -3 -5 -6 4 -13 1 -16 -7 -3 -8 1 -17
10 -20 18 -7 35 2 28 15 -8 11 6 11 24 0 21 -13 -22 -33 -54 -25 -32 8 -40 21
-25 39 15 18 26 19 36 3z m162 5 c-10 -2 -18 -9 -18 -14 0 -5 -8 -9 -17 -9
-15 0 -14 2 3 15 10 8 26 14 34 14 11 -1 10 -3 -2 -6z m-583 -24 c11 -17 -1
-21 -15 -4 -8 9 -8 15 -2 15 6 0 14 -5 17 -11z m295 1 c8 -5 11 -10 5 -10 -5
0 -17 5 -25 10 -8 5 -10 10 -5 10 6 0 17 -5 25 -10z m-74 -9 c5 -5 18 -11 29
-14 20 -5 19 -5 -1 -6 -11 0 -29 6 -40 14 -10 8 -14 15 -8 15 5 0 14 -4 20 -9z
m420 -3 c5 -8 2 -9 -11 -4 -10 4 -21 2 -25 -4 -4 -6 -15 -7 -26 -3 -17 6 -17
8 6 14 38 11 48 10 56 -3z m-531 -28 c5 -8 11 -7 20 0 20 16 51 4 51 -20 0
-11 -6 -20 -13 -20 -17 0 -82 33 -83 43 0 11 18 9 25 -3z m435 6 c0 -11 -19
-15 -25 -6 -3 5 1 10 9 10 9 0 16 -2 16 -4z m-225 -16 c3 -6 -1 -7 -9 -4 -18
7 -21 14 -7 14 6 0 13 -4 16 -10z m-285 -16 l25 -15 -25 7 c-14 3 -29 10 -34
15 -16 14 6 10 34 -7z m350 7 c0 -12 -20 -25 -27 -18 -7 7 6 27 18 27 5 0 9
-4 9 -9z m188 -9 c-16 -12 -25 -11 -56 1 l-37 15 56 -2 c50 -1 54 -2 37 -14z
m-135 -9 c-21 -8 -15 -20 20 -37 17 -8 25 -15 17 -15 -8 0 -33 8 -55 19 -40
19 -40 19 -15 29 14 5 30 10 35 10 6 -1 4 -3 -2 -6z m-453 -13 c0 -5 -4 -10
-9 -10 -6 0 -13 5 -16 10 -3 6 1 10 9 10 9 0 16 -4 16 -10z m307 4 c-3 -3 -12
-4 -19 -1 -8 3 -5 6 6 6 11 1 17 -2 13 -5z m-230 -10 c-3 -3 -12 -4 -19 -1 -8
3 -5 6 6 6 11 1 17 -2 13 -5z m158 -4 c3 -5 1 -10 -4 -10 -6 0 -11 5 -11 10 0
6 2 10 4 10 3 0 8 -4 11 -10z m275 0 c8 -5 11 -10 5 -10 -5 0 -17 5 -25 10 -8
5 -10 10 -5 10 6 0 17 -5 25 -10z m-470 -4 c0 -11 -19 -15 -25 -6 -3 5 1 10 9
10 9 0 16 -2 16 -4z m125 -17 c11 -17 -1 -21 -15 -4 -8 9 -8 15 -2 15 6 0 14
-5 17 -11z m-45 -14 c17 -20 -7 -20 -34 0 -19 15 -19 15 1 15 11 0 26 -7 33
-15z m187 9 c-3 -3 -12 -4 -19 -1 -8 3 -5 6 6 6 11 1 17 -2 13 -5z m244 -15
c-12 -12 -25 -18 -28 -15 -4 3 2 13 13 21 29 22 41 18 15 -6z m-324 -5 c-3 -3
-12 -4 -19 -1 -8 3 -5 6 6 6 11 1 17 -2 13 -5z m393 -2 c0 -13 -23 -32 -39
-32 -11 0 -10 4 4 20 19 21 35 26 35 12z m1126 -19 c-7 -7 -26 7 -26 19 0 6 6
6 15 -2 9 -7 13 -15 11 -17z m-1542 -7 c9 3 16 1 16 -5 0 -6 -8 -11 -17 -11
-20 1 -53 23 -53 35 0 5 8 1 19 -9 10 -9 25 -14 35 -10z m206 -10 c-7 -7 -13
-7 -20 0 -6 6 -3 10 10 10 13 0 16 -4 10 -10z m-73 -12 c-3 -3 -12 -4 -19 -1
-8 3 -5 6 6 6 11 1 17 -2 13 -5z m123 -4 c0 -5 -4 -10 -10 -10 -5 0 -10 5 -10
10 0 6 5 10 10 10 6 0 10 -4 10 -10z m-83 -6 c-3 -3 -12 -4 -19 -1 -8 3 -5 6
6 6 11 1 17 -2 13 -5z m156 -6 c4 -10 8 -9 16 2 5 8 13 11 16 8 4 -4 0 -16 -8
-28 -15 -21 -16 -21 -34 -3 -10 10 -27 17 -38 16 -20 -3 -20 -3 0 6 28 13 43
13 48 -1z m-433 -13 c32 -12 33 -14 9 -14 -14 -1 -34 6 -45 14 -23 18 -10 18
36 0z m315 -5 c3 -6 -1 -7 -9 -4 -18 7 -21 14 -7 14 6 0 13 -4 16 -10z m195
-5 c-7 -9 -15 -13 -17 -11 -7 7 7 26 19 26 6 0 6 -6 -2 -15z m36 -53 c-12 -11
-18 7 -10 30 l8 23 4 -23 c2 -13 1 -26 -2 -30z m-232 23 c-7 -17 -20 -20 -29
-6 -3 5 3 12 12 14 10 3 19 5 20 6 1 0 0 -6 -3 -14z m63 -1 c-3 -3 -12 -4 -19
-1 -8 3 -5 6 6 6 11 1 17 -2 13 -5z m-37 -8 c0 -3 -4 -8 -10 -11 -5 -3 -10 -1
-10 4 0 6 5 11 10 11 6 0 10 -2 10 -4z m-360 -16 c0 -5 -7 -7 -15 -4 -8 4 -15
8 -15 10 0 2 7 4 15 4 8 0 15 -4 15 -10z m-50 -10 c8 -5 11 -10 5 -10 -5 0
-17 5 -25 10 -8 5 -10 10 -5 10 6 0 17 -5 25 -10z m544 1 c3 -5 -5 -11 -19
-13 -20 -4 -23 -3 -14 8 13 16 25 18 33 5z m-287 -7 c-3 -3 -12 -4 -19 -1 -8
3 -5 6 6 6 11 1 17 -2 13 -5z m-130 -10 c-3 -3 -12 -4 -19 -1 -8 3 -5 6 6 6
11 1 17 -2 13 -5z m240 -18 c0 -18 -55 -27 -61 -10 -4 11 10 18 50 23 6 0 11
-5 11 -13z m280 -11 c9 -10 6 -13 -15 -13 -15 0 -30 5 -34 12 -5 8 -11 7 -20
-2 -16 -16 -28 -15 -28 1 0 18 80 19 97 2z m-437 -5 c13 -8 13 -10 -2 -10 -9
0 -20 5 -23 10 -8 13 5 13 25 0z m-60 -10 c0 -5 -4 -10 -10 -10 -5 0 -10 5
-10 10 0 6 5 10 10 10 6 0 10 -4 10 -10z m109 -3 c-2 -1 -13 -9 -24 -17 -19
-14 -19 -14 -6 3 7 9 18 17 24 17 6 0 8 -1 6 -3z m36 -17 c3 -5 -1 -10 -9 -10
-9 0 -16 5 -16 10 0 6 4 10 9 10 6 0 13 -4 16 -10z m135 0 c0 -5 -2 -10 -4
-10 -3 0 -8 5 -11 10 -3 6 -1 10 4 10 6 0 11 -4 11 -10z m73 -15 c-10 -7 -20
-12 -21 -10 -7 7 23 33 31 28 5 -3 0 -11 -10 -18z m-393 -5 c0 -5 -2 -10 -4
-10 -3 0 -8 5 -11 10 -3 6 -1 10 4 10 6 0 11 -4 11 -10z m165 0 c3 -5 -1 -10
-9 -10 -8 0 -18 5 -21 10 -3 6 1 10 9 10 8 0 18 -4 21 -10z m285 -31 c0 -5 -5
-9 -12 -9 -6 0 -8 3 -5 7 4 3 1 13 -6 22 -11 14 -10 14 6 2 9 -7 17 -17 17
-22z m1785 -7 c10 -26 -11 -35 -39 -17 -25 17 -33 35 -20 48 9 9 52 -14 59
-31z m-1538 22 c-3 -3 -12 -4 -19 -1 -8 3 -5 6 6 6 11 1 17 -2 13 -5z m1455
-9 c0 -5 -5 -11 -11 -13 -6 -2 -11 4 -11 13 0 9 5 15 11 13 6 -2 11 -8 11 -13z
m-1430 -20 c6 -28 -6 -34 -16 -9 -5 14 0 34 8 34 2 0 6 -11 8 -25z m-427 -23
c-7 -7 -55 19 -50 28 4 6 15 3 30 -7 13 -10 22 -19 20 -21z m389 22 c3 -8 2
-12 -4 -9 -6 3 -10 10 -10 16 0 14 7 11 14 -7z m-344 -4 c0 -5 -2 -10 -4 -10
-3 0 -8 5 -11 10 -3 6 -1 10 4 10 6 0 11 -4 11 -10z m-290 -10 c8 -5 11 -10 5
-10 -5 0 -17 5 -25 10 -8 5 -10 10 -5 10 6 0 17 -5 25 -10z m350 -13 c0 -2
-19 -3 -42 -3 -24 -1 -33 1 -20 3 12 3 22 9 22 14 0 6 8 5 20 -1 11 -6 20 -12
20 -13z m974 -12 c-4 -8 -11 -15 -16 -15 -6 0 -5 6 2 15 7 8 14 15 16 15 2 0
1 -7 -2 -15z m886 -6 c0 -6 -9 -8 -20 -4 -16 5 -19 3 -13 -11 4 -12 3 -15 -5
-10 -18 11 -14 34 6 39 21 4 32 -1 32 -14z m-2390 1 c18 -12 2 -12 -25 0 -13
6 -15 9 -5 9 8 0 22 -4 30 -9z m720 0 c0 -5 -5 -10 -11 -10 -5 0 -7 5 -4 10 3
6 8 10 11 10 2 0 4 -4 4 -10z m214 -10 c19 -10 38 -34 55 -69 38 -79 45 -91
53 -91 14 0 8 -31 -7 -36 -8 -4 -15 -11 -15 -17 0 -5 8 -3 18 5 16 14 20 12
58 -27 l40 -44 -25 -12 c-19 -9 -22 -13 -11 -16 9 -2 24 -19 34 -38 11 -21 27
-35 38 -35 11 0 18 -7 18 -18 0 -27 -9 -32 -36 -20 -28 13 -29 12 -38 -25 -5
-21 -4 -27 5 -21 8 4 9 3 5 -5 -16 -25 -26 3 -20 55 6 47 4 57 -12 69 -14 10
-21 10 -26 2 -5 -8 -8 -7 -8 4 0 9 -3 31 -6 48 -5 24 -3 31 10 31 9 0 16 7 16
15 0 21 -17 19 -31 -3 -10 -16 -16 -17 -35 -8 -18 9 -22 17 -19 39 4 19 1 27
-9 27 -16 0 -50 65 -41 79 3 5 -11 15 -30 22 -39 14 -46 34 -15 44 11 4 18 11
14 16 -7 11 -46 1 -56 -14 -4 -8 -14 -8 -30 0 -22 10 -21 11 16 18 25 5 40 14
43 26 3 10 8 17 12 16 3 -2 19 -9 35 -17z m-667 4 c-3 -3 -12 -4 -19 -1 -8 3
-5 6 6 6 11 1 17 -2 13 -5z m493 -10 c0 -8 -4 -12 -10 -9 -5 3 -10 10 -10 16
0 5 5 9 10 9 6 0 10 -7 10 -16z m55 6 c3 -6 -1 -7 -9 -4 -18 7 -21 14 -7 14 6
0 13 -4 16 -10z m735 -45 c0 -5 -5 -3 -10 5 -5 8 -10 20 -10 25 0 6 5 3 10 -5
5 -8 10 -19 10 -25z m687 13 c-3 -8 -6 -5 -6 6 -1 11 2 17 5 13 3 -3 4 -12 1
-19z m64 -15 c6 -21 17 -41 22 -45 7 -4 6 -12 -3 -23 -12 -15 -15 -12 -27 27
-22 73 -15 110 8 41z m-779 -8 c3 -13 2 -22 -2 -20 -11 7 -20 45 -10 45 4 0
10 -11 12 -25z m848 -5 c0 -5 -2 -10 -4 -10 -3 0 -8 5 -11 10 -3 6 -1 10 4 10
6 0 11 -4 11 -10z m83 1 c4 -1 7 -5 7 -10 0 -9 -48 -2 -55 8 -2 4 6 6 18 5 12
-1 25 -3 30 -3z m-2360 -8 c-7 -2 -19 -2 -25 0 -7 3 -2 5 12 5 14 0 19 -2 13
-5z m402 -3 c-4 -7 3 -9 22 -5 21 5 24 4 13 -4 -13 -9 -12 -11 4 -11 11 0 17
-3 14 -6 -3 -3 -25 0 -48 7 -34 10 -39 14 -24 20 26 10 26 10 19 -1z m255 6
c0 -3 -4 -8 -10 -11 -5 -3 -10 -1 -10 4 0 6 5 11 10 11 6 0 10 -2 10 -4z
m1520 -21 c0 -24 -1 -24 -18 -7 -21 19 -19 32 4 32 8 0 14 -10 14 -25z m230
-5 c0 -5 -4 -10 -9 -10 -6 0 -13 5 -16 10 -3 6 1 10 9 10 9 0 16 -4 16 -10z
m-1645 -34 c-27 -19 -40 -8 -19 15 12 13 21 16 28 9 7 -7 4 -14 -9 -24z m695
19 c0 -8 -7 -15 -15 -15 -16 0 -20 12 -8 23 11 12 23 8 23 -8z m172 -30 c3
-14 2 -25 -2 -25 -10 0 -30 47 -23 54 10 9 20 -3 25 -29z m481 4 c4 -16 3 -18
-9 -8 -7 6 -11 15 -8 20 8 13 11 11 17 -12z m-2226 5 c-3 -3 -12 -4 -19 -1 -8
3 -5 6 6 6 11 1 17 -2 13 -5z m438 -14 c3 -5 -1 -10 -10 -10 -9 0 -13 5 -10
10 3 6 8 10 10 10 2 0 7 -4 10 -10z m806 -23 c-8 -8 -11 -7 -11 4 0 20 13 34
18 19 3 -7 -1 -17 -7 -23z m442 -7 c-7 -27 -23 -15 -23 17 0 21 3 23 14 14 8
-7 12 -21 9 -31z m-931 8 c-6 -6 -15 -8 -19 -4 -4 4 -1 11 7 16 19 12 27 3 12
-12z m195 16 c-3 -3 -12 -4 -19 -1 -8 3 -5 6 6 6 11 1 17 -2 13 -5z m558 -4
c3 -5 1 -10 -4 -10 -6 0 -11 5 -11 10 0 6 2 10 4 10 3 0 8 -4 11 -10z m-1258
-16 c-3 -3 -12 -4 -19 -1 -8 3 -5 6 6 6 11 1 17 -2 13 -5z m543 -14 c0 -5 -7
-7 -15 -4 -8 4 -15 8 -15 10 0 2 7 4 15 4 8 0 15 -4 15 -10z m557 -12 c-3 -8
-6 -5 -6 6 -1 11 2 17 5 13 3 -3 4 -12 1 -19z m272 11 c6 10 10 10 16 1 4 -7
3 -15 -3 -19 -8 -5 -9 -18 -1 -45 11 -38 5 -65 -7 -30 -3 10 -12 31 -20 46
-17 31 -20 73 -4 48 8 -12 11 -13 19 -1z m-979 -25 c28 -17 15 -14 -61 11
l-44 15 40 -6 c22 -3 51 -12 65 -20z m850 -26 c16 -60 33 -97 42 -92 4 3 4 14
-2 24 -5 10 -10 26 -10 34 0 24 28 8 39 -22 8 -22 10 -23 10 -7 1 11 6 27 12
35 8 11 9 8 4 -15 -5 -24 -4 -28 6 -17 18 17 26 15 32 -8 3 -11 2 -18 -3 -15
-13 8 -32 -23 -25 -44 7 -23 -10 -38 -19 -15 -3 9 -13 14 -21 10 -8 -3 -17 -1
-21 5 -3 6 -11 3 -19 -8 -11 -15 -15 -15 -29 -4 -18 15 -22 51 -6 51 6 0 10 7
10 15 0 18 -27 20 -32 3 -8 -24 -28 4 -28 40 0 28 3 33 12 24 16 -16 29 -15
27 1 -2 20 1 47 6 47 2 0 9 -19 15 -42z m270 11 c0 -11 -4 -18 -10 -14 -5 3
-7 12 -3 20 7 21 13 19 13 -6z m-1030 -19 c0 -5 -5 -10 -11 -10 -5 0 -7 5 -4
10 3 6 8 10 11 10 2 0 4 -4 4 -10z m1980 -5 c0 -8 -4 -15 -10 -15 -5 0 -10 7
-10 15 0 8 5 15 10 15 6 0 10 -7 10 -15z m-2363 -1 c-3 -3 -12 -4 -19 -1 -8 3
-5 6 6 6 11 1 17 -2 13 -5z m613 -4 c0 -5 -4 -10 -10 -10 -5 0 -10 5 -10 10 0
6 5 10 10 10 6 0 10 -4 10 -10z m-575 -10 c3 -5 2 -10 -4 -10 -5 0 -13 5 -16
10 -3 6 -2 10 4 10 5 0 13 -4 16 -10z m615 -10 c0 -5 -2 -10 -4 -10 -3 0 -8 5
-11 10 -3 6 -1 10 4 10 6 0 11 -4 11 -10z m-693 -6 c-3 -3 -12 -4 -19 -1 -8 3
-5 6 6 6 11 1 17 -2 13 -5z m1102 -87 c15 -15 14 -24 -4 -31 -8 -3 -14 -2 -14
2 1 4 1 16 0 27 -1 16 -3 17 -11 5 -16 -26 -21 -3 -8 39 l13 42 6 -36 c3 -20
11 -41 18 -48z m-129 63 c0 -5 -5 -10 -11 -10 -5 0 -7 5 -4 10 3 6 8 10 11 10
2 0 4 -4 4 -10z m-50 -6 c0 -10 -33 -33 -47 -34 -7 0 -13 6 -13 14 0 13 9 17
53 25 4 0 7 -2 7 -5z m210 -29 c0 -14 6 -25 14 -25 9 0 12 -8 8 -25 -2 -14 -8
-25 -13 -25 -5 0 -9 11 -9 25 0 14 -4 25 -10 25 -5 0 -10 11 -10 25 0 14 5 25
10 25 6 0 10 -11 10 -25z m-833 -1 c-3 -3 -12 -4 -19 -1 -8 3 -5 6 6 6 11 1
17 -2 13 -5z m218 -26 c6 -6 -1 -7 -20 -2 -16 3 -34 11 -40 16 -6 6 1 7 20 2
17 -3 35 -11 40 -16z m465 13 c0 -6 -4 -13 -10 -16 -5 -3 -10 1 -10 9 0 9 5
16 10 16 6 0 10 -4 10 -9z m46 -13 c-3 -13 -6 -26 -6 -30 0 -5 -6 -8 -13 -8
-9 0 -12 10 -9 30 3 18 10 30 19 30 11 0 14 -6 9 -22z m-781 2 c8 -13 -5 -13
-25 0 -13 8 -13 10 2 10 9 0 20 -4 23 -10z m281 -85 c17 -16 14 -18 -10 -9 -9
3 -16 10 -16 15 0 13 9 11 26 -6z m209 -25 c-4 -17 -9 -30 -11 -27 -2 2 -1 18
2 36 4 17 9 30 11 27 3 -2 2 -19 -2 -36z m-319 -25 c18 -9 23 -15 12 -15 -24
0 -48 11 -48 21 0 12 3 12 36 -6z m228 6 c4 -5 -3 -7 -14 -4 -23 6 -26 13 -6
13 8 0 17 -4 20 -9z m-159 -31 c3 -6 -1 -7 -9 -4 -18 7 -21 14 -7 14 6 0 13
-4 16 -10z m1615 -10 c0 -5 -5 -10 -11 -10 -5 0 -7 5 -4 10 3 6 8 10 11 10 2
0 4 -4 4 -10z m-1523 -16 c-3 -3 -12 -4 -19 -1 -8 3 -5 6 6 6 11 1 17 -2 13
-5z m297 -9 c-7 -17 -20 -20 -28 -6 -7 10 3 21 20 21 8 0 11 -6 8 -15z m1236
1 c0 -3 -4 -8 -10 -11 -5 -3 -10 -1 -10 4 0 6 5 11 10 11 6 0 10 -2 10 -4z
m-106 -61 c3 -9 0 -15 -9 -15 -8 0 -15 7 -15 15 0 8 4 15 9 15 5 0 11 -7 15
-15z m-1357 -41 c-3 -3 -12 -4 -19 -1 -8 3 -5 6 6 6 11 1 17 -2 13 -5z m-197
-24 c8 -5 11 -10 5 -10 -5 0 -17 5 -25 10 -8 5 -10 10 -5 10 6 0 17 -5 25 -10z
m155 -40 c-3 -5 -12 -10 -18 -10 -7 0 -6 4 3 10 19 12 23 12 15 0z m1165 -19
c0 -6 -4 -13 -10 -16 -5 -3 -10 1 -10 9 0 9 5 16 10 16 6 0 10 -4 10 -9z
m-1325 -21 c-3 -5 -1 -10 6 -10 7 0 10 -3 6 -6 -9 -9 -28 6 -22 17 4 5 8 9 11
9 3 0 2 -4 -1 -10z m80 0 c-3 -5 -12 -10 -18 -10 -7 0 -6 4 3 10 19 12 23 12
15 0z m192 -76 c-3 -3 -12 -4 -19 -1 -8 3 -5 6 6 6 11 1 17 -2 13 -5z m-260
-70 c-3 -3 -12 -4 -19 -1 -8 3 -5 6 6 6 11 1 17 -2 13 -5z m1363 2 c0 -3 -4
-8 -10 -11 -5 -3 -10 -1 -10 4 0 6 5 11 10 11 6 0 10 -2 10 -4z m-1413 -22
c-3 -3 -12 -4 -19 -1 -8 3 -5 6 6 6 11 1 17 -2 13 -5z m116 -31 c-7 -2 -19 -2
-25 0 -7 3 -2 5 12 5 14 0 19 -2 13 -5z m430 -90 c-7 -2 -19 -2 -25 0 -7 3 -2
5 12 5 14 0 19 -2 13 -5z m-406 -89 c-3 -3 -12 -4 -19 -1 -8 3 -5 6 6 6 11 1
17 -2 13 -5z m446 -1 c-7 -2 -19 -2 -25 0 -7 3 -2 5 12 5 14 0 19 -2 13 -5z
m-856 -49 c-3 -3 -12 -4 -19 -1 -8 3 -5 6 6 6 11 1 17 -2 13 -5z m230 -10 c-3
-3 -12 -4 -19 -1 -8 3 -5 6 6 6 11 1 17 -2 13 -5z m80 0 c-3 -3 -12 -4 -19 -1
-8 3 -5 6 6 6 11 1 17 -2 13 -5z m70 -16 c-3 -8 -6 -5 -6 6 -1 11 2 17 5 13 3
-3 4 -12 1 -19z m166 5 c-7 -2 -19 -2 -25 0 -7 3 -2 5 12 5 14 0 19 -2 13 -5z
m70 0 c-7 -2 -21 -2 -30 0 -10 3 -4 5 12 5 17 0 24 -2 18 -5z m84 -35 c-3 -7
-5 -2 -5 12 0 14 2 19 5 13 2 -7 2 -19 0 -25z m-1130 -10 c-3 -7 -5 -2 -5 12
0 14 2 19 5 13 2 -7 2 -19 0 -25z m770 -30 c-3 -8 -6 -5 -6 6 -1 11 2 17 5 13
3 -3 4 -12 1 -19z m236 -16 c-3 -12 -9 -22 -14 -22 -5 0 -3 11 3 25 13 30 20
28 11 -3z m-86 -24 c-3 -7 -5 -2 -5 12 0 14 2 19 5 13 2 -7 2 -19 0 -25z"/>
<path d="M660 2069 c0 -5 5 -7 10 -4 6 3 10 8 10 11 0 2 -4 4 -10 4 -5 0 -10
-5 -10 -11z"/>
<path d="M2330 2699 c0 -5 5 -7 10 -4 6 3 10 8 10 11 0 2 -4 4 -10 4 -5 0 -10
-5 -10 -11z"/>
<path d="M2288 2693 c7 -3 16 -2 19 1 4 3 -2 6 -13 5 -11 0 -14 -3 -6 -6z"/>
<path d="M4115 2690 c-3 -6 1 -7 9 -4 18 7 21 14 7 14 -6 0 -13 -4 -16 -10z"/>
<path d="M3665 2680 c-3 -5 -2 -10 4 -10 5 0 13 5 16 10 3 6 2 10 -4 10 -5 0
-13 -4 -16 -10z"/>
<path d="M2378 2673 c7 -3 16 -2 19 1 4 3 -2 6 -13 5 -11 0 -14 -3 -6 -6z"/>
<path d="M2080 2640 c0 -5 9 -10 21 -10 11 0 17 5 14 10 -3 6 -13 10 -21 10
-8 0 -14 -4 -14 -10z"/>
<path d="M2218 2533 c7 -3 16 -2 19 1 4 3 -2 6 -13 5 -11 0 -14 -3 -6 -6z"/>
<path d="M2128 2523 c7 -3 16 -2 19 1 4 3 -2 6 -13 5 -11 0 -14 -3 -6 -6z"/>
<path d="M4338 2443 c7 -3 16 -2 19 1 4 3 -2 6 -13 5 -11 0 -14 -3 -6 -6z"/>
<path d="M2315 2410 c-33 -16 -74 -29 -91 -29 -17 -1 -38 -8 -45 -18 -13 -15
-10 -16 28 -10 23 4 50 10 60 14 17 6 17 6 0 -15 -19 -20 -18 -21 15 -25 30
-4 31 -5 10 -12 -14 -5 -25 -18 -29 -36 -4 -20 -16 -34 -38 -45 -25 -12 -32
-20 -27 -36 3 -11 -1 -24 -9 -28 -11 -7 -10 -10 4 -16 22 -8 27 -3 31 32 3 27
8 30 79 48 42 11 75 21 74 23 -2 1 -24 3 -50 4 -25 1 -44 6 -41 11 3 4 11 8
17 8 7 0 19 9 27 21 16 22 57 43 104 54 15 3 27 8 24 10 -2 2 -22 0 -45 -6
-48 -10 -93 2 -93 26 0 8 5 15 11 15 6 0 22 9 36 20 35 27 19 24 -52 -10z m9
-58 c3 -5 -1 -9 -9 -9 -8 0 -15 4 -15 9 0 4 4 8 9 8 6 0 12 -4 15 -8z"/>
<path d="M2358 2383 c6 -2 18 -2 25 0 6 3 1 5 -13 5 -14 0 -19 -2 -12 -5z"/>
<path d="M4440 2360 c0 -5 14 -10 31 -10 17 0 28 -4 24 -10 -3 -5 4 -10 16
-10 18 0 19 -2 9 -15 -10 -13 -9 -15 9 -15 23 0 29 -15 9 -23 -10 -4 -9 -8 2
-16 9 -6 18 -7 24 -1 6 6 15 10 21 10 5 0 -2 -11 -17 -24 -15 -12 -25 -26 -21
-30 3 -3 -6 -6 -21 -6 -17 0 -25 -4 -21 -11 4 -6 12 -8 19 -6 6 3 20 -1 31 -9
18 -13 18 -14 -4 -14 -19 0 -21 -3 -12 -14 9 -11 9 -15 -1 -19 -7 -3 3 -3 22
0 39 7 38 1 -5 -21 l-30 -16 35 -1 35 -1 -35 -13 c-40 -15 -93 -20 -72 -6 10
6 8 10 -10 14 -44 12 -53 7 -20 -13 18 -11 48 -20 67 -20 27 0 33 -3 29 -15
-4 -11 -16 -14 -38 -12 -17 2 -24 2 -14 0 9 -2 19 -10 21 -18 4 -9 -8 -15 -39
-20 -24 -3 -44 -10 -44 -16 0 -5 -11 -9 -24 -9 -29 0 -81 -18 -73 -26 3 -3 31
-1 63 5 31 6 60 9 62 6 14 -14 -26 -34 -81 -40 -34 -4 -71 -12 -82 -16 -15 -7
-9 -8 20 -5 22 3 58 1 80 -4 l40 -8 -48 -1 c-26 0 -53 -6 -60 -11 -7 -6 -21
-17 -32 -26 -19 -14 -18 -15 15 -8 19 3 37 10 40 15 7 10 80 0 80 -11 0 -6
-27 -19 -52 -24 -3 0 -10 -4 -14 -8 -11 -12 6 -9 55 8 24 8 46 12 49 10 6 -6
-43 -26 -64 -26 -8 0 -14 -3 -14 -7 0 -5 -15 -8 -33 -9 -17 0 -52 -10 -76 -22
-25 -12 -53 -22 -62 -22 -10 0 -21 -4 -24 -10 -9 -14 47 -8 63 7 12 12 42 18
66 14 4 -1 14 3 21 9 10 8 20 8 36 0 14 -8 19 -8 15 -1 -5 7 5 11 28 11 19 0
43 3 53 6 10 3 7 -2 -7 -10 l-25 -15 35 -1 35 -1 -30 -16 c-16 -9 -35 -24 -42
-33 -7 -10 -26 -20 -43 -24 -19 -3 -29 -10 -25 -17 4 -6 19 -8 34 -5 15 4 5
-5 -24 -19 -27 -15 -55 -33 -61 -41 -6 -8 -19 -14 -28 -14 -16 0 -40 -45 -32
-59 3 -4 -13 -15 -34 -25 -22 -10 -40 -22 -40 -27 0 -6 7 -6 18 -1 20 11 62 0
44 -12 -7 -4 -16 -5 -21 -2 -5 3 -14 -1 -21 -9 -7 -8 -18 -15 -25 -15 -7 0
-18 -7 -25 -15 -7 -8 -16 -13 -20 -10 -10 6 -40 -22 -40 -36 0 -13 7 -11 37 8
l26 18 -6 -30 c-3 -17 -9 -39 -13 -50 -6 -16 -5 -18 7 -7 7 6 17 12 21 12 15
0 8 -23 -14 -41 -11 -11 -16 -19 -9 -19 6 0 21 11 33 25 12 14 27 23 34 21 7
-3 15 -2 19 2 3 4 20 7 38 8 17 1 36 9 42 18 14 18 52 21 75 6 8 -5 13 -10 10
-11 -3 0 -21 -2 -40 -5 -19 -2 -51 -16 -72 -29 -21 -14 -41 -25 -46 -25 -17 0
-62 -56 -52 -66 6 -6 -10 -30 -47 -67 -31 -31 -52 -57 -46 -57 5 0 18 9 27 19
9 10 25 17 34 14 10 -2 26 5 37 18 l20 22 -32 -17 c-18 -9 -33 -15 -33 -12 0
3 76 79 110 110 22 20 67 28 76 14 5 -7 2 -9 -8 -5 -9 3 -24 -1 -35 -9 -17
-14 -17 -14 4 -5 13 7 24 7 28 2 3 -5 -3 -12 -12 -15 -18 -6 -67 -51 -103 -95
-24 -29 -25 -32 -5 -25 8 4 15 10 15 15 0 14 38 30 45 19 3 -6 -5 -14 -19 -20
-13 -5 -49 -32 -78 -60 -43 -41 -48 -50 -28 -45 14 4 35 17 47 28 39 36 35 12
-4 -27 -36 -36 -37 -37 -13 -34 14 2 25 10 25 18 0 9 8 14 20 13 46 -6 81 -5
100 1 16 6 21 3 22 -13 1 -17 -4 -21 -27 -21 -16 0 -32 -4 -35 -10 -3 -5 -15
-10 -27 -10 -15 0 -19 -5 -15 -20 3 -11 0 -20 -6 -20 -7 0 -4 -7 5 -14 10 -7
15 -16 11 -19 -3 -4 9 -2 28 3 19 6 35 10 36 10 1 0 1 -8 0 -18 -1 -13 -15
-23 -44 -32 -54 -15 -62 -27 -21 -27 18 0 33 -4 35 -10 3 -7 17 -8 41 -2 55
13 61 10 23 -10 -34 -18 -34 -19 -13 -30 27 -14 28 -28 5 -36 -10 -3 -31 -17
-48 -31 l-30 -26 36 5 c27 4 40 1 53 -14 20 -24 20 -29 1 -29 -8 0 -15 -4 -15
-10 0 -5 7 -10 15 -10 12 0 9 -7 -10 -27 -14 -15 -25 -31 -25 -35 0 -5 -11 -8
-24 -8 -32 0 -56 -10 -56 -22 0 -7 4 -7 13 -1 15 13 147 16 147 4 0 -5 9 -7
20 -4 11 3 20 0 20 -6 0 -6 -12 -14 -27 -17 -31 -7 -53 -22 -53 -35 0 -5 6 -6
13 -3 8 3 26 0 40 -5 l27 -10 -41 -41 c-38 -38 -39 -40 -17 -40 14 0 37 13 53
30 16 16 34 30 41 30 7 0 19 14 28 30 14 30 14 30 -12 31 -21 1 -23 2 -7 6 11
3 28 14 38 24 10 10 22 19 27 19 6 0 10 5 10 11 0 7 -10 9 -26 6 -22 -4 -25
-1 -22 21 2 18 11 28 28 33 20 6 21 7 5 8 -20 2 -20 2 -1 16 15 11 16 15 5 15
-8 0 -20 -5 -27 -12 -6 -6 -15 -8 -19 -4 -13 13 29 36 64 36 39 0 45 21 11 38
l-23 11 23 0 22 1 0 785 c0 621 -3 785 -12 785 -9 0 -9 3 1 9 12 8 13 14 3 35
-9 20 -9 26 1 27 6 1 1 5 -13 9 -37 12 -140 12 -140 0z m130 -460 c-8 -5 -31
-10 -50 -10 -26 0 -31 3 -20 10 8 5 31 10 50 10 26 0 31 -3 20 -10z m-107 -37
c-7 -2 -19 -2 -25 0 -7 3 -2 5 12 5 14 0 19 -2 13 -5z m99 -75 c-9 -9 -15 -9
-24 0 -9 9 -7 12 12 12 19 0 21 -3 12 -12z m-228 -349 c-3 -5 -11 -9 -17 -9
-7 0 -23 -9 -37 -20 -32 -25 -55 -25 -57 0 -1 14 6 22 25 26 15 3 36 9 47 13
23 9 47 3 39 -10z m-39 -78 c-52 -30 -121 -55 -80 -29 44 27 101 55 115 56 8
1 -7 -11 -35 -27z m25 -21 c0 -5 -5 -10 -11 -10 -5 0 -7 5 -4 10 3 6 8 10 11
10 2 0 4 -4 4 -10z m230 -30 c0 -5 -12 -10 -27 -9 -25 0 -26 1 -8 9 27 12 35
12 35 0z m-119 -30 c22 10 21 9 -4 -14 -33 -31 -57 -33 -57 -7 0 21 21 34 31
18 4 -5 16 -5 30 3z m63 -52 c-3 -4 -9 -8 -15 -8 -5 0 -9 4 -9 8 0 5 7 9 15 9
8 0 12 -4 9 -9z m-7 -54 c-3 -3 -12 -4 -19 -1 -8 3 -5 6 6 6 11 1 17 -2 13 -5z
m83 2 c0 -3 -4 -8 -10 -11 -5 -3 -10 -1 -10 4 0 6 5 11 10 11 6 0 10 -2 10 -4z
m-280 -131 c0 -2 -15 -12 -32 -20 l-33 -16 24 21 c22 19 41 26 41 15z m30
-135 c0 -5 -6 -10 -14 -10 -8 0 -21 -3 -30 -6 -9 -3 -16 -1 -16 4 0 9 9 13 53
21 4 0 7 -3 7 -9z"/>
<path d="M1330 2290 c0 -5 7 -10 16 -10 8 0 12 5 9 10 -3 6 -10 10 -16 10 -5
0 -9 -4 -9 -10z"/>
<path d="M1320 2234 c0 -8 5 -12 10 -9 6 3 10 10 10 16 0 5 -4 9 -10 9 -5 0
-10 -7 -10 -16z"/>
<path d="M4493 2223 c9 -2 23 -2 30 0 6 3 -1 5 -18 5 -16 0 -22 -2 -12 -5z"/>
<path d="M4405 2210 c3 -5 13 -10 21 -10 8 0 12 5 9 10 -3 6 -13 10 -21 10 -8
0 -12 -4 -9 -10z"/>
<path d="M1630 2195 c0 -8 5 -15 10 -15 6 0 10 7 10 15 0 8 -4 15 -10 15 -5 0
-10 -7 -10 -15z"/>
<path d="M4461 2201 c-10 -7 -10 -10 -1 -16 6 -4 16 -3 22 3 13 13 -4 23 -21
13z"/>
<path d="M2282 2168 c2 -6 14 -15 27 -20 16 -5 21 -4 19 4 -2 6 -14 15 -27 20
-16 5 -21 4 -19 -4z"/>
<path d="M1385 2136 c-18 -13 -17 -13 8 -13 16 0 27 5 27 13 0 8 -4 14 -8 14
-5 0 -17 -6 -27 -14z"/>
<path d="M2046 2135 c-7 -19 1 -22 49 -23 37 0 38 0 15 10 -14 5 -32 14 -42
19 -11 5 -18 3 -22 -6z"/>
<path d="M4360 2140 c-13 -8 -12 -10 3 -10 9 0 17 5 17 10 0 12 -1 12 -20 0z"/>
<path d="M2300 2120 c20 -13 33 -13 25 0 -3 6 -14 10 -23 10 -15 0 -15 -2 -2
-10z"/>
<path d="M1930 2095 c-10 -12 -10 -15 3 -15 19 0 31 16 18 24 -5 3 -14 -1 -21
-9z"/>
<path d="M2200 2085 c7 -8 20 -15 30 -15 9 0 27 -9 40 -20 30 -26 44 -26 28 0
-7 11 -30 26 -51 35 -49 19 -63 20 -47 0z"/>
<path d="M2008 2083 c6 -2 18 -2 25 0 6 3 1 5 -13 5 -14 0 -19 -2 -12 -5z"/>
<path d="M4395 2080 c4 -6 11 -8 16 -5 14 9 11 15 -7 15 -8 0 -12 -5 -9 -10z"/>
<path d="M1828 2061 c-25 -9 -7 -28 18 -22 17 5 19 9 10 17 -6 6 -19 8 -28 5z"/>
<path d="M2398 2063 c6 -2 18 -2 25 0 6 3 1 5 -13 5 -14 0 -19 -2 -12 -5z"/>
<path d="M4320 2058 c0 -4 16 -8 35 -8 19 0 35 2 35 4 0 2 -16 6 -35 8 -19 2
-35 0 -35 -4z"/>
<path d="M2458 2053 c7 -3 16 -2 19 1 4 3 -2 6 -13 5 -11 0 -14 -3 -6 -6z"/>
<path d="M1557 2025 c-8 -20 -4 -29 11 -24 5 2 6 13 2 23 -6 19 -7 19 -13 1z"/>
<path d="M1680 2030 c-8 -5 -12 -10 -10 -12 3 -2 16 -9 29 -16 21 -13 23 -12
17 3 -3 9 -6 21 -6 26 0 11 -11 11 -30 -1z"/>
<path d="M2147 2033 c-4 -6 -1 -14 5 -16 18 -8 -11 -27 -29 -20 -8 3 -13 -2
-13 -12 0 -11 5 -15 15 -12 8 4 17 2 19 -2 3 -5 -26 -12 -64 -15 -63 -7 -101
-24 -72 -34 16 -5 15 -23 0 -21 -41 5 -54 -15 -15 -24 12 -2 30 -8 41 -12 16
-7 17 -6 7 13 -15 29 -14 35 7 27 9 -4 31 -8 47 -9 17 -2 39 -6 50 -11 11 -4
5 3 -12 16 -37 28 -37 44 0 44 14 -1 24 3 21 6 -10 16 17 19 38 5 33 -24 45
-19 20 7 -26 27 -20 37 20 37 l28 0 -22 22 c-14 14 -23 18 -26 10 -5 -16 -49
-16 -54 0 -3 9 -6 9 -11 1z"/>
<path d="M3568 2023 c6 -2 18 -2 25 0 6 3 1 5 -13 5 -14 0 -19 -2 -12 -5z"/>
<path d="M3183 2013 c15 -2 37 -2 50 0 12 2 0 4 -28 4 -27 0 -38 -2 -22 -4z"/>
<path d="M2015 1980 c3 -5 13 -10 21 -10 8 0 14 5 14 10 0 6 -9 10 -21 10 -11
0 -17 -4 -14 -10z"/>
<path d="M1535 1950 c3 -5 8 -10 11 -10 2 0 4 5 4 10 0 6 -5 10 -11 10 -5 0
-7 -4 -4 -10z"/>
<path d="M1871 1913 c11 -12 11 -17 2 -20 -16 -6 1 -25 31 -36 10 -4 16 -13
13 -21 -4 -10 0 -12 14 -9 20 6 20 6 0 27 -12 12 -21 28 -21 36 0 13 -28 39
-44 40 -5 0 -2 -7 5 -17z"/>
<path d="M3135 1920 c28 -12 47 -12 40 0 -3 6 -18 10 -33 9 -24 0 -25 -1 -7
-9z"/>
<path d="M1742 1869 c2 -7 10 -15 17 -17 8 -3 12 1 9 9 -2 7 -10 15 -17 17 -8
3 -12 -1 -9 -9z"/>
<path d="M2320 1866 c14 -8 29 -12 33 -9 12 8 -14 23 -38 22 -18 0 -17 -1 5
-13z"/>
<path d="M2135 1830 c-3 -5 -1 -10 4 -10 6 0 11 5 11 10 0 6 -2 10 -4 10 -3 0
-8 -4 -11 -10z"/>
<path d="M1850 1810 c38 -21 60 -25 60 -11 0 10 -54 31 -79 31 -9 -1 0 -9 19
-20z"/>
<path d="M1775 1800 c20 -23 29 -21 19 4 -3 9 -13 16 -22 16 -13 0 -12 -3 3
-20z"/>
<path d="M2045 1805 c17 -7 32 -11 35 -9 7 8 -24 24 -45 23 -15 0 -13 -4 10
-14z"/>
<path d="M4228 1803 c7 -3 16 -2 19 1 4 3 -2 6 -13 5 -11 0 -14 -3 -6 -6z"/>
<path d="M4295 1800 c-16 -7 -17 -9 -3 -9 9 -1 20 4 23 9 7 11 7 11 -20 0z"/>
<path d="M2108 1793 c7 -3 16 -2 19 1 4 3 -2 6 -13 5 -11 0 -14 -3 -6 -6z"/>
<path d="M4150 1740 c-12 -8 -9 -10 13 -10 16 0 26 4 22 10 -8 12 -16 12 -35
0z"/>
<path d="M4390 1700 c-9 -6 -10 -10 -3 -10 6 0 15 5 18 10 8 12 4 12 -15 0z"/>
<path d="M4125 1688 c-20 -12 -35 -28 -35 -40 0 -3 18 3 40 15 40 22 51 37 28
37 -7 0 -22 -6 -33 -12z"/>
<path d="M4320 1689 c0 -5 5 -7 10 -4 6 3 10 8 10 11 0 2 -4 4 -10 4 -5 0 -10
-5 -10 -11z"/>
<path d="M4250 1671 c-17 -5 -21 -9 -12 -15 6 -4 22 0 34 8 24 17 19 18 -22 7z"/>
<path d="M4100 1631 c-14 -3 -26 -11 -27 -17 -2 -10 91 5 132 21 17 6 -78 3
-105 -4z"/>
<path d="M4193 1539 c-18 -12 -33 -22 -33 -24 0 -4 98 30 106 38 17 16 -43 5
-73 -14z"/>
<path d="M2610 1536 c0 -2 7 -6 15 -10 8 -3 15 -1 15 4 0 6 -7 10 -15 10 -8 0
-15 -2 -15 -4z"/>
<path d="M2855 1510 c17 -17 31 -26 33 -20 5 14 -32 50 -49 50 -7 0 0 -14 16
-30z"/>
<path d="M4010 1490 c0 -5 5 -10 10 -10 6 0 10 5 10 10 0 6 -4 10 -10 10 -5 0
-10 -4 -10 -10z"/>
<path d="M2650 1460 c0 -5 5 -10 11 -10 5 0 7 5 4 10 -3 6 -8 10 -11 10 -2 0
-4 -4 -4 -10z"/>
<path d="M4014 1455 c-18 -13 -18 -14 4 -8 12 3 25 9 28 14 8 14 -10 11 -32
-6z"/>
<path d="M3955 1441 c-26 -11 -60 -49 -51 -58 4 -4 17 5 29 19 12 14 31 31 42
37 23 12 9 14 -20 2z"/>
<path d="M4076 1388 c-3 -13 0 -27 6 -33 8 -7 9 -5 5 7 -3 10 1 24 9 33 13 13
13 15 1 15 -8 0 -17 -10 -21 -22z"/>
<path d="M3997 1364 c-23 -15 -45 -23 -55 -19 -16 6 -16 5 -1 -10 15 -15 20
-14 62 12 26 15 47 31 47 36 0 13 -14 8 -53 -19z"/>
<path d="M3860 1334 c0 -9 5 -14 12 -12 18 6 21 28 4 28 -9 0 -16 -7 -16 -16z"/>
<path d="M4025 1330 c-3 -5 -2 -10 4 -10 5 0 13 5 16 10 3 6 2 10 -4 10 -5 0
-13 -4 -16 -10z"/>
<path d="M4053 1311 c-10 -11 -31 -23 -48 -27 -27 -7 -29 -6 -16 9 7 10 9 17
3 17 -6 0 -16 -13 -24 -30 -7 -16 -17 -30 -21 -30 -5 0 -5 -5 -1 -12 5 -8 2
-9 -10 -5 -14 6 -16 3 -11 -16 6 -21 5 -21 -9 -3 -15 18 -16 18 -22 1 -4 -9
-18 -29 -30 -43 -13 -14 -24 -30 -24 -36 0 -6 11 3 25 21 20 25 32 31 60 30
33 -1 34 -2 18 -19 -18 -20 -11 -23 19 -7 11 6 29 30 39 55 11 24 26 47 33 51
15 9 51 63 43 63 -4 0 -14 -9 -24 -19z"/>
<path d="M3835 1309 c-4 -6 -5 -12 -2 -15 2 -3 7 2 10 11 7 17 1 20 -8 4z"/>
<path d="M3930 1310 c0 -5 -7 -10 -15 -10 -8 0 -15 -4 -15 -10 0 -5 4 -10 10
-10 5 0 7 -8 4 -17 -4 -10 3 -3 15 15 24 37 25 42 11 42 -5 0 -10 -4 -10 -10z"/>
<path d="M4250 1299 c0 -5 5 -7 10 -4 6 3 10 8 10 11 0 2 -4 4 -10 4 -5 0 -10
-5 -10 -11z"/>
<path d="M3478 1249 c-2 -6 -29 -11 -61 -12 l-57 -1 5 -41 c9 -70 16 -95 30
-95 7 0 16 7 19 16 8 21 29 6 23 -17 -3 -11 -1 -17 4 -13 5 3 13 -6 18 -19 13
-33 40 -43 38 -14 -2 57 4 87 18 87 8 0 14 3 14 8 -3 18 2 32 12 32 6 0 9 -7
5 -15 -9 -25 7 -56 24 -45 13 8 12 11 -5 24 -18 14 -18 15 -2 16 15 0 16 3 6
21 -9 17 -7 25 12 45 21 23 22 24 3 24 -11 0 -25 -5 -32 -12 -9 -9 -16 -8 -30
5 -21 19 -39 22 -44 6z m-10 -154 c-3 -3 -9 2 -12 12 -6 14 -5 15 5 6 7 -7 10
-15 7 -18z"/>
<path d="M4010 1204 c0 -8 5 -12 10 -9 6 4 8 11 5 16 -9 14 -15 11 -15 -7z"/>
<path d="M3892 1147 c-29 -50 -28 -58 4 -24 14 15 24 35 22 45 -2 12 -9 6 -26
-21z"/>
<path d="M3974 1145 c-17 -27 -16 -39 2 -27 12 8 29 52 20 52 -3 0 -13 -11
-22 -25z"/>
<path d="M3915 1110 c-3 -5 -1 -10 4 -10 6 0 11 5 11 10 0 6 -2 10 -4 10 -3 0
-8 -4 -11 -10z"/>
<path d="M3993 981 c-34 -17 -47 -39 -15 -26 9 4 24 8 32 8 15 0 30 15 30 30
0 10 -9 7 -47 -12z"/>
<path d="M4134 925 c-18 -14 -18 -14 4 -8 12 3 22 9 22 14 0 12 -3 11 -26 -6z"/>
<path d="M4025 915 c-25 -12 -26 -14 -5 -9 28 7 60 23 45 23 -5 0 -23 -6 -40
-14z"/>
<path d="M2790 868 c0 -15 5 -30 10 -33 13 -8 13 25 0 45 -8 12 -10 9 -10 -12z"/>
<path d="M3998 873 c7 -3 16 -2 19 1 4 3 -2 6 -13 5 -11 0 -14 -3 -6 -6z"/>
<path d="M4228 783 c7 -3 16 -2 19 1 4 3 -2 6 -13 5 -11 0 -14 -3 -6 -6z"/>
<path d="M2795 770 c-3 -5 -1 -10 4 -10 6 0 11 5 11 10 0 6 -2 10 -4 10 -3 0
-8 -4 -11 -10z"/>
<path d="M3477 763 c-4 -3 -7 -11 -7 -17 0 -6 5 -5 12 2 6 6 9 14 7 17 -3 3
-9 2 -12 -2z"/>
<path d="M4153 758 c-18 -6 -33 -14 -33 -19 0 -4 -13 -10 -30 -14 -16 -4 -32
-11 -35 -16 -11 -17 20 -9 60 16 22 13 48 25 58 25 9 0 17 5 17 10 0 6 -1 10
-2 9 -2 -1 -18 -6 -35 -11z"/>
<path d="M4155 730 c-3 -5 -1 -10 4 -10 6 0 11 5 11 10 0 6 -2 10 -4 10 -3 0
-8 -4 -11 -10z"/>
<path d="M2400 715 c0 -8 5 -15 11 -15 5 0 7 -4 4 -10 -3 -5 -1 -10 6 -10 10
0 10 -3 0 -12 -11 -10 -14 -10 -18 0 -7 19 -23 14 -23 -9 0 -16 5 -20 27 -17
21 2 29 10 37 36 5 17 15 32 22 32 8 0 14 5 14 10 0 6 -18 10 -40 10 -29 0
-40 -4 -40 -15z"/>
<path d="M2666 654 c-3 -8 -10 -13 -15 -10 -5 3 -21 0 -35 -8 -26 -13 -26 -14
-5 -19 12 -3 29 -2 38 3 9 5 24 11 34 14 20 6 23 36 3 36 -8 0 -17 -7 -20 -16z"/>
<path d="M4094 635 c-17 -13 -17 -14 -2 -15 9 0 20 5 23 11 11 17 0 20 -21 4z"/>
<path d="M4285 630 c-3 -5 1 -10 9 -10 8 0 18 5 21 10 3 6 -1 10 -9 10 -8 0
-18 -4 -21 -10z"/>
<path d="M2515 606 c-27 -10 -46 -36 -27 -36 12 0 92 40 92 45 0 8 -33 3 -65
-9z"/>
<path d="M2280 600 c0 -13 18 -22 24 -11 3 5 -1 11 -9 15 -8 3 -15 1 -15 -4z"/>
<path d="M4535 580 c-3 -5 -1 -10 4 -10 6 0 11 5 11 10 0 6 -2 10 -4 10 -3 0
-8 -4 -11 -10z"/>
<path d="M4288 563 c7 -3 16 -2 19 1 4 3 -2 6 -13 5 -11 0 -14 -3 -6 -6z"/>
<path d="M4195 540 c-3 -5 -1 -10 4 -10 6 0 11 5 11 10 0 6 -2 10 -4 10 -3 0
-8 -4 -11 -10z"/>
<path d="M2430 530 c0 -5 5 -10 10 -10 6 0 10 5 10 10 0 6 -4 10 -10 10 -5 0
-10 -4 -10 -10z"/>
<path d="M2402 479 c2 -7 10 -15 17 -17 8 -3 12 1 9 9 -2 7 -10 15 -17 17 -8
3 -12 -1 -9 -9z"/>
<path d="M4165 480 c-3 -5 -1 -10 4 -10 6 0 11 5 11 10 0 6 -2 10 -4 10 -3 0
-8 -4 -11 -10z"/>
<path d="M4245 481 c-9 -16 13 -23 35 -11 11 6 20 13 20 15 0 9 -49 5 -55 -4z"/>
<path d="M4110 431 l-35 -7 30 -6 c18 -4 40 -1 55 8 21 11 22 13 5 12 -11 0
-36 -4 -55 -7z"/>
<path d="M4050 410 c-9 -6 -10 -10 -3 -10 6 0 15 5 18 10 8 12 4 12 -15 0z"/>
<path d="M4344 405 c-19 -14 -18 -14 4 -15 13 0 22 6 22 15 0 19 -1 19 -26 0z"/>
<path d="M4145 390 c-3 -4 4 -10 15 -13 11 -3 22 -2 25 3 3 4 -4 10 -15 13
-11 3 -22 2 -25 -3z"/>
<path d="M4105 380 c4 -6 11 -8 16 -5 14 9 11 15 -7 15 -8 0 -12 -5 -9 -10z"/>
<path d="M4458 383 c7 -3 16 -2 19 1 4 3 -2 6 -13 5 -11 0 -14 -3 -6 -6z"/>
<path d="M1468 363 c7 -3 16 -2 19 1 4 3 -2 6 -13 5 -11 0 -14 -3 -6 -6z"/>
<path d="M4076 354 c-5 -14 -4 -15 9 -4 17 14 19 20 6 20 -5 0 -12 -7 -15 -16z"/>
<path d="M4233 346 c1 -6 -9 -10 -23 -9 -14 1 -18 0 -7 -3 28 -9 19 -24 -15
-24 -49 0 -28 -10 32 -15 30 -2 60 1 67 6 7 6 17 8 23 4 12 -7 50 21 50 37 0
5 -10 4 -21 -3 -15 -8 -28 -8 -43 -1 -35 17 -66 21 -63 8z m34 -22 c-3 -3 -12
-4 -19 -1 -8 3 -5 6 6 6 11 1 17 -2 13 -5z"/>
<path d="M2188 283 c7 -3 16 -2 19 1 4 3 -2 6 -13 5 -11 0 -14 -3 -6 -6z"/>
<path d="M4033 223 c9 -2 25 -2 35 0 9 3 1 5 -18 5 -19 0 -27 -2 -17 -5z"/>
<path d="M3815 184 c-10 -8 -17 -14 -14 -15 32 -6 49 -3 49 7 0 20 -14 23 -35
8z"/>
<path d="M4065 150 c-8 -13 15 -13 35 0 12 8 11 10 -7 10 -12 0 -25 -4 -28
-10z"/>
</g>
</svg>
